<?xml version="1.0" encoding="UTF-8" standalone="no"?>
<svg
   xmlns:dc="http://purl.org/dc/elements/1.1/"
   xmlns:cc="http://creativecommons.org/ns#"
   xmlns:rdf="http://www.w3.org/1999/02/22-rdf-syntax-ns#"
   xmlns:svg="http://www.w3.org/2000/svg"
   xmlns="http://www.w3.org/2000/svg"
   viewBox="0 0 1000 1000"
   height="1000"
   width="1000"
   xml:space="preserve"
   id="svg4747"
   version="1.1"><metadata
     id="metadata4753"><rdf:RDF><cc:Work
         rdf:about=""><dc:format>image/svg+xml</dc:format><dc:type
           rdf:resource="http://purl.org/dc/dcmitype/StillImage" /><dc:title></dc:title></cc:Work></rdf:RDF></metadata><defs
     id="defs4751"><clipPath
       id="clipPath10502"
       clipPathUnits="userSpaceOnUse"><g
         transform="rotate(-90,550.80044,6.424554)"
         id="g10506"><path
           id="path10504"
           style="fill:none;stroke:#000000;stroke-width:0.5;stroke-linecap:round;stroke-linejoin:round;stroke-miterlimit:10;stroke-dasharray:none;stroke-opacity:1"
           d="M 0,0 -0.16,-11.04 -0.8,-22.08 -1.76,-33.119999 -3.04,-44 -4.8,-54.880001 l -2.24,-10.880001 -2.4,-10.720001 -2.88,-10.719994 -3.36,-10.560005 -3.680001,-10.399998 -4,-10.4 -4.319999,-10.08 -4.64,-9.92 -5.119999,-9.92 -5.440002,-9.6 -5.759998,-9.44 -6.080002,-9.28 -6.399998,-8.95999 -6.719997,-8.80001 -7.040001,-8.47999 -7.200005,-8.32001 -7.68,-8 -7.839996,-7.67999 -8.160002,-7.52001 -8.32,-7.19999 -8.8,-6.88001 -8.79999,-6.56 -9.12001,-6.24 -9.28,-5.76001 -9.59999,-5.59998 -9.76001,-5.28 -9.92,-4.96002 -10.08,-4.47998 -10.23999,-4.16 -10.24001,-3.84 -10.56,-3.52002 -10.55999,-3.03998 -10.72,-2.72 -10.88001,-2.24002 -10.87999,-1.91998 -10.88,-1.60001 -11.04001,-1.11999 -10.88001,-0.80002 -11.03998,-0.47998 H -318.56 l -11.04001,0.47998 -10.88,0.80002 -11.03998,1.11999 -10.88,1.60001 -10.88001,1.91998 -10.88,2.24002 -10.72,2.72 -10.56,3.03998 -10.56,3.52002 -10.23999,3.84 -10.24002,4.16 -10.07999,4.47998 -9.92001,4.96002 -9.75998,5.28 -9.60001,5.59998 -9.28,5.76001 -9.11999,6.24 -8.80002,6.56 -8.79999,6.88001 -8.31997,7.19999 -8.16004,7.52001 -7.83996,7.67999 -7.68006,8 -7.19995,8.32001 -7.04004,8.47999 -6.71997,8.80001 -6.40002,8.95999 -6.08002,9.28 -5.75995,9.44 -5.44,9.6 -5.12,9.92 -4.64001,9.92 -4.32001,10.08 -4,10.4 -3.67999,10.399998 -3.35999,10.560005 -2.88,10.719994 -2.40002,10.720001 -2.24,10.880001 L -622.88,-44 -624.15997,-33.119999 -625.12,-22.08 l -0.64001,11.04 -0.15997,11.04 0.15997,11.04 0.64001,11.04 0.96003,11.039999 L -622.88,44 l 1.76,10.880001 2.24,10.880001 2.40002,10.720001 2.88,10.719994 3.35999,10.560005 3.67999,10.399998 4,10.4 4.32001,10.08 4.64001,9.92 5.12,9.92 5.44,9.6 5.75995,9.44 6.08002,9.28 6.40002,8.95999 6.71997,8.80001 7.04004,8.47999 7.19995,8.32001 7.68006,8 7.83996,7.67999 8.16004,7.52001 8.31997,7.19999 8.79999,6.88001 8.80002,6.56 9.11999,6.24 9.28,5.76001 9.60001,5.59998 9.75998,5.28 9.92001,4.96002 10.07999,4.47998 10.24002,4.16 10.23999,3.84 10.56,3.52002 10.56,3.03998 10.72,2.72 10.88,2.24002 10.88001,1.91998 10.88,1.60001 11.03998,1.11999 10.88,0.80002 11.04001,0.47998 h 11.20001 l 11.03998,-0.47998 10.88001,-0.80002 11.04001,-1.11999 10.88,-1.60001 10.87999,-1.91998 10.88001,-2.24002 10.72,-2.72 10.55999,-3.03998 10.56,-3.52002 10.24001,-3.84 10.23999,-4.16 10.08,-4.47998 9.92,-4.96002 9.76001,-5.28 9.59999,-5.59998 9.28,-5.76001 9.12001,-6.24 8.79999,-6.56 8.8,-6.88001 8.32,-7.19999 8.160002,-7.52001 7.839996,-7.67999 7.68,-8 7.200005,-8.32001 7.040001,-8.47999 6.719997,-8.80001 6.399998,-8.95999 6.080002,-9.28 5.759998,-9.44 5.440002,-9.6 5.119999,-9.92 4.64,-9.92 4.319999,-10.08 4,-10.4 L -15.68,97.760002 -12.32,87.199997 -9.44,76.480003 -7.04,65.760002 -4.8,54.880001 -3.04,44 -1.76,33.119999 -0.8,22.08 -0.16,11.04 Z" /></g></clipPath></defs><g
     transform="translate(102.62121,-1762.5582)"
     style="display:inline;opacity:1"
     id="layer1" /><g
     style="display:inline"
     transform="translate(102.62121,-1762.5582)"
     id="g4755"><g
       transform="matrix(1.6331023,0,0,1.6331015,-491.64273,842.49629)"
       id="g11683"><rect
         style="opacity:1;fill:#e6e6e6;fill-opacity:1;stroke:none;stroke-width:1.44320428;stroke-linecap:butt;stroke-linejoin:bevel;stroke-miterlimit:4;stroke-dasharray:none;stroke-dashoffset:0;stroke-opacity:1;paint-order:fill markers stroke"
         id="rect10500"
         width="788.00568"
         height="848.80505"
         x="159.15096"
         y="499.82849"
         clip-path="url(#clipPath10502)"
         transform="matrix(0.97829039,0,0,0.97455664,11.81819,22.14043)" /><g
         id="g10498"><path
           transform="translate(0,-1.3017334e-5)"
           id="path10451"
           d="m 613.11249,809.36464 c -8.03796,0.15715 -14.68937,5.68321 -19.20728,11.89996 -33.28761,-0.28435 -66.88641,0.66651 -99.99279,-0.80015 -5.86565,-11.7761 -23.14868,-14.69422 -32.61884,-5.53737 -9.66661,7.76126 -9.38671,23.88266 0.58035,31.27884 3.78519,3.77879 9.20541,4.70916 14.02081,5.80151 10.97566,14.71054 18.91415,31.53635 28.51454,47.16494 7.10551,13.32912 16.12074,25.84683 21.68045,39.90603 -3.15928,6.70485 -4.22989,15.11733 0.27957,21.64048 7.25622,14.8299 31.70753,12.77583 37.22303,-2.43898 2.87359,-6.56171 1.62282,-14.10957 -1.45762,-20.35834 16.58491,-28.69547 33.17133,-57.39007 49.75925,-86.0838 9.74859,-0.0852 19.50078,-5.98411 21.9027,-15.83704 4.27175,-13.03767 -7.14022,-27.35531 -20.68417,-26.63608 z"
           style="opacity:1;fill:#d5f6ff;fill-opacity:1;stroke:none;stroke-width:0.98716414;stroke-linecap:butt;stroke-linejoin:bevel;stroke-miterlimit:4;stroke-dasharray:none;stroke-dashoffset:0;stroke-opacity:1;paint-order:fill markers stroke" /><path
           transform="translate(0,-1.3017334e-5)"
           id="path10461"
           d="m 320.31613,725.87407 c -6.00262,5.32614 -0.81316,8.63007 4.75163,10.79046 4.56248,1.00328 10.76341,9.57104 14.36293,5.031 1.04817,-1.58942 2.41506,-5.23823 4.77211,-2.76081 3.90244,1.15649 4.35526,3.58797 1.76803,6.38572 -1.20639,4.20384 5.3601,5.56218 7.76416,7.79075 18.98353,11.0817 38.00229,22.17492 57.09561,33.02424 89.05247,-0.0285 178.13999,0.21109 267.17058,0.0154 21.66746,-12.74598 43.95267,-24.70534 65.18561,-38.04438 1.27017,-2.92737 -4.99985,-6.35882 -0.43188,-8.06891 2.08882,-1.20803 5.22075,-3.25465 5.97119,0.49165 2.93915,5.16254 8.8182,-0.75466 12.20073,-2.14978 3.09662,-2.53748 8.37927,-3.47596 10.3151,-7.01234 -0.31179,-4.13963 -3.43423,-7.27439 -7.83369,-5.85743 -147.48207,0 -294.96414,0 -442.44621,0 z"
           style="opacity:1;fill:#d5f6ff;fill-opacity:1;stroke:none;stroke-width:0.98716414;stroke-linecap:butt;stroke-linejoin:bevel;stroke-miterlimit:4;stroke-dasharray:none;stroke-dashoffset:0;stroke-opacity:1;paint-order:fill markers stroke" /><path
           transform="translate(0,-1.3017334e-5)"
           id="path10463"
           d="m 310.51775,742.88338 c -5.52423,4.86789 -1.94427,10.11793 1.44478,15.04432 72.83386,126.13005 145.66856,252.2596 218.50389,378.3888 6.77228,2.7354 9.70727,-1.7837 7.97057,-8.2752 -1.04871,-4.7685 2.19347,-12.7613 -1.67789,-15.5233 -2.99232,0.1861 -7.10829,-0.027 -5.72584,-4.22 -0.42187,-2.1778 0.16115,-4.7353 3.00777,-3.9949 7.89032,1.0318 3.10627,-9.3021 4.3953,-13.8936 -0.0683,-20.6476 0.13202,-41.3303 -0.10345,-61.9561 -44.77881,-77.39869 -89.33899,-154.96578 -134.25433,-232.2593 -21.78018,-12.26451 -43.11671,-25.6705 -65.2608,-37.09 -3.0882,1.59985 -2.99305,8.19031 -7.20322,3.95251 -4.55904,-1.04578 -1.97034,-4.21615 -0.80207,-7.12609 0.85201,-4.05174 -5.75105,-4.02755 -7.73337,-6.45161 -4.15812,-1.92365 -8.25507,-6.06746 -12.56134,-6.59553 z"
           style="opacity:1;fill:#d5f6ff;fill-opacity:1;stroke:none;stroke-width:0.98716414;stroke-linecap:butt;stroke-linejoin:bevel;stroke-miterlimit:4;stroke-dasharray:none;stroke-dashoffset:0;stroke-opacity:1;paint-order:fill markers stroke" /><path
           transform="translate(0,-1.3017334e-5)"
           id="path10465"
           d="m 774.83197,744.2388 c -5.61802,3.87729 -13.011,6.40678 -17.57615,11.07475 7.23337,4.25177 -1.08426,12.1849 -4.48274,7.14344 -0.96823,-2.80955 -3.56525,-4.54589 -5.97963,-1.93478 -20.79274,11.90789 -41.92456,23.48714 -61.98623,36.50673 -45.35079,76.74762 -89.57985,154.19755 -134.06152,231.42826 0,24.9684 0,49.9367 0,74.905 6.25588,-0.01 8.16584,2.3604 6.91015,9.1158 -8.28541,-2.6698 -7.29648,4.8885 -6.91015,10.6275 1.33917,4.2017 -3.35487,14.5718 3.72111,13.5747 6.54285,1.2816 7.02098,-7.7874 10.52444,-11.5077 71.82301,-124.6079 144.08469,-248.97695 215.52269,-373.79797 1.37411,-3.00658 -0.23999,-7.38851 -2.59516,-8.98474 -1.02894,0.61634 -2.05788,1.23267 -3.08681,1.84901 z"
           style="opacity:1;fill:#d5f6ff;fill-opacity:1;stroke:none;stroke-width:0.98716414;stroke-linecap:butt;stroke-linejoin:bevel;stroke-miterlimit:4;stroke-dasharray:none;stroke-dashoffset:0;stroke-opacity:1;paint-order:fill markers stroke" /><path
           transform="translate(0,-1.3017334e-5)"
           id="path10467"
           d="m 640.18624,1019.0946 c -16.83679,29.5645 -34.48605,58.8265 -50.77918,88.6057 0.56822,4.1301 4.73149,7.6508 8.86712,5.1576 33.41936,-7.4509 65.47544,-21.8107 92.92454,-42.2996 -0.15871,-3.6142 -5.42439,-5.8555 -7.28997,-8.925 -14.04972,-14.3591 -28.34804,-28.4718 -42.53483,-42.6949 l -0.97874,0.1287 z"
           style="opacity:1;fill:#d5f6ff;fill-opacity:1;stroke:none;stroke-width:0.98716414;stroke-linecap:butt;stroke-linejoin:bevel;stroke-miterlimit:4;stroke-dasharray:none;stroke-dashoffset:0;stroke-opacity:1;paint-order:fill markers stroke" /><path
           transform="translate(0,-1.3017334e-5)"
           id="path10469"
           d="m 705.2581,927.68166 c -11.1583,17.07321 -20.73781,35.52937 -31.23064,53.16034 10.00272,11.85958 22.31184,22.5674 33.17501,34.0121 7.15353,6.1499 12.68278,14.9886 21.47379,18.9246 5.87089,0.3534 7.77583,-7.2368 11.50499,-10.4663 17.14421,-22.5576 31.32418,-47.76801 39.93551,-74.80389 -0.64781,-3.35654 -6.38224,-2.3114 -8.74575,-3.94482 -21.95199,-5.89345 -43.88739,-12.18507 -66.11291,-16.88203 z"
           style="opacity:1;fill:#d5f6ff;fill-opacity:1;stroke:none;stroke-width:0.98716414;stroke-linecap:butt;stroke-linejoin:bevel;stroke-miterlimit:4;stroke-dasharray:none;stroke-dashoffset:0;stroke-opacity:1;paint-order:fill markers stroke" /><path
           transform="translate(0,-1.3017334e-5)"
           id="path10471"
           d="m 775.55306,789.6927 c -5.67901,2.15473 -7.3405,9.49093 -10.90134,13.91945 -14.46955,24.89502 -29.10952,49.71941 -42.90489,74.98702 3.4867,3.13037 9.66804,2.89161 14.11314,4.78537 18.05539,4.69915 36.0471,10.45777 54.23833,14.19826 3.61175,-5.01224 2.05663,-12.28246 2.7899,-18.18349 0.49064,-29.88763 -2.81484,-60.24057 -13.14162,-88.39747 -0.89673,-1.41082 -2.71561,-1.37459 -4.19352,-1.30914 z"
           style="opacity:1;fill:#d5f6ff;fill-opacity:1;stroke:none;stroke-width:0.98716414;stroke-linecap:butt;stroke-linejoin:bevel;stroke-miterlimit:4;stroke-dasharray:none;stroke-dashoffset:0;stroke-opacity:1;paint-order:fill markers stroke" /><path
           transform="translate(0,-1.3017334e-5)"
           id="path10473"
           d="m 644.50701,643.25692 c -3.09411,2.83906 -2.71563,8.69979 -4.49094,12.59818 -4.974,18.53797 -10.2067,37.21416 -14.84938,55.70895 5.02778,2.55229 11.62605,0.8171 17.18277,1.51835 28.43303,0.0127 57.07277,0.50201 85.37433,-0.20342 2.2016,-2.56615 4.90566,-6.73984 1.25131,-9.42433 -23.17916,-24.87857 -51.02528,-45.6587 -82.08308,-59.6386 -0.76927,-0.25523 -1.56052,-0.57331 -2.38501,-0.55913 z"
           style="opacity:1;fill:#d5f6ff;fill-opacity:1;stroke:none;stroke-width:0.98716414;stroke-linecap:butt;stroke-linejoin:bevel;stroke-miterlimit:4;stroke-dasharray:none;stroke-dashoffset:0;stroke-opacity:1;paint-order:fill markers stroke" /><path
           transform="translate(0,-1.3017334e-5)"
           id="path10475"
           d="m 539.75386,622.37608 c -15.5494,-0.22835 -31.14117,0.868 -46.29839,4.50008 -0.28551,6.40239 3.34508,13.3876 4.52087,20.00747 5.18031,18.36399 9.42606,37.2296 15.25133,55.27537 13.81583,2.231 28.12809,0.66271 42.12222,1.17033 6.74944,-0.36323 13.98535,0.7278 20.42967,-0.54757 6.85416,-24.89565 14.40399,-49.74353 19.05112,-75.14402 -4.02631,-2.83332 -10.25044,-2.33621 -15.10824,-3.64788 -13.21664,-2.00583 -26.64778,-1.5148 -39.96858,-1.61378 z"
           style="opacity:1;fill:#d5f6ff;fill-opacity:1;stroke:none;stroke-width:0.98716414;stroke-linecap:butt;stroke-linejoin:bevel;stroke-miterlimit:4;stroke-dasharray:none;stroke-dashoffset:0;stroke-opacity:1;paint-order:fill markers stroke" /><path
           transform="translate(0,-1.3017334e-5)"
           id="path10477"
           d="m 444.18981,642.8231 c -19.13146,8.1156 -36.85151,19.57986 -53.50585,31.98502 -12.04885,9.23064 -22.43007,20.35996 -33.22771,30.96598 0.52109,7.0305 6.77662,8.58865 12.90062,7.41631 30.98256,0.004 61.96512,0.007 92.94768,0.0106 0.93206,-5.29522 -2.80046,-11.51683 -3.62118,-17.16016 -5.05114,-17.64317 -8.99986,-35.84952 -14.8843,-53.1213 -0.18894,-0.0932 -0.40271,-0.11398 -0.60926,-0.0964 z"
           style="opacity:1;fill:#d5f6ff;fill-opacity:1;stroke:none;stroke-width:0.98716414;stroke-linecap:butt;stroke-linejoin:bevel;stroke-miterlimit:4;stroke-dasharray:none;stroke-dashoffset:0;stroke-opacity:1;paint-order:fill markers stroke" /><path
           transform="translate(0,-1.3017334e-5)"
           id="path10479"
           d="m 312.40725,789.69848 c -5.39361,0.15751 -4.86668,7.65337 -6.73571,11.2197 -8.76242,28.95794 -10.72436,59.55805 -9.0632,89.63179 0.71477,2.3325 -0.41018,8.875 3.92873,6.80097 22.2127,-5.75152 44.35591,-11.76821 66.52861,-17.67206 -0.34901,-5.09859 -5.20025,-9.94082 -7.35249,-14.90829 -14.28024,-24.15539 -27.34317,-49.08394 -42.61113,-72.62734 -1.09398,-1.53056 -2.7113,-2.74556 -4.69481,-2.44477 z"
           style="opacity:1;fill:#d5f6ff;fill-opacity:1;stroke:none;stroke-width:0.98716414;stroke-linecap:butt;stroke-linejoin:bevel;stroke-miterlimit:4;stroke-dasharray:none;stroke-dashoffset:0;stroke-opacity:1;paint-order:fill markers stroke" /><path
           transform="translate(0,-1.3017334e-5)"
           id="path10481"
           d="m 381.64949,927.61225 c -24.40534,6.12597 -48.74564,12.79127 -73.01352,19.29984 0.50741,7.25265 4.79694,14.16597 7.22057,21.07942 10.80874,24.75029 25.14639,48.37459 43.81312,67.95039 6.42021,-4.1936 11.4975,-11.0465 17.3759,-16.225 12.64268,-12.5647 25.21673,-25.20173 37.82624,-37.80098 -6.14573,-13.17766 -14.64914,-25.92509 -21.86009,-38.85882 -3.68561,-4.97419 -5.75107,-12.04865 -11.07301,-15.45641 l -0.13882,-0.002 z"
           style="opacity:1;fill:#d5f6ff;fill-opacity:1;stroke:none;stroke-width:0.98716414;stroke-linecap:butt;stroke-linejoin:bevel;stroke-miterlimit:4;stroke-dasharray:none;stroke-dashoffset:0;stroke-opacity:1;paint-order:fill markers stroke" /><path
           transform="translate(0,-1.3017334e-5)"
           id="path10483"
           d="m 422.79997,1043.928 c -8.2558,8.7793 -17.7237,16.8656 -25.05315,26.2948 6.6416,6.9042 16.09799,10.8771 24.17597,16.0271 22.89181,12.853 47.80878,22.8315 73.60534,27.5874 5.37626,-2.765 2.60667,-8.9909 0.15576,-12.7738 -15.15699,-27.5367 -31.2757,-54.5348 -46.85325,-81.8359 -5.05186,1.8418 -8.57499,8.1821 -13.05245,11.7141 -4.32607,4.3287 -8.65215,8.6575 -12.97822,12.9863 z"
           style="opacity:1;fill:#d5f6ff;fill-opacity:1;stroke:none;stroke-width:0.98716414;stroke-linecap:butt;stroke-linejoin:bevel;stroke-miterlimit:4;stroke-dasharray:none;stroke-dashoffset:0;stroke-opacity:1;paint-order:fill markers stroke" /></g><g
         id="g4761"
         transform="rotate(-90,859.92044,315.54455)"><path
           d="M 0,0 0.16,10.88 0.8,21.76 1.76,32.639999 3.04,43.52 4.8,54.240002 l 2.24,10.719997 2.4,10.559998 2.88,10.560005 3.36,10.400001 3.520001,10.239997 4,10.08 4.319999,10.08 4.8,9.76 4.959999,9.6 5.440002,9.6 5.759999,9.27999 6.080001,8.96001 6.399998,8.8 6.559998,8.64 7.040001,8.32 7.36,8.16 7.520004,7.84 7.839997,7.52 8.160001,7.36 8.32,7.03999 8.64,6.56002 8.8,6.39999 8.96,6.07999 9.28,5.76001 9.59999,5.44 9.60001,4.95999 9.75999,4.80002 10.08001,4.31998 10.08,4 10.24,3.52002 10.4,3.35998 10.55999,2.88001 10.56002,2.39999 10.71998,2.24002 10.72002,1.75998 10.88,1.28 10.87998,0.96002 10.88,0.63999 10.88001,0.16 10.88,-0.16 10.88001,-0.63999 10.88,-0.96002 10.87998,-1.28 10.72,-1.75998 10.72,-2.24002 10.56,-2.39999 10.56,-2.88001 10.40002,-3.35998 10.23999,-3.52002 10.07999,-4 10.08001,-4.31998 9.76001,-4.80002 9.59998,-4.95999 9.60001,-5.44 9.27999,-5.76001 8.96,-6.07999 8.80001,-6.39999 8.63999,-6.56002 8.32001,-7.03999 8.16003,-7.36 7.83997,-7.52 7.52001,-7.84 7.35999,-8.16 7.03998,-8.32 6.56,-8.64 6.40002,-8.8 6.08002,-8.96001 5.76001,-9.27999 5.44,-9.6 4.95996,-9.6 4.79999,-9.76 4.32,-10.08 4,-10.08 L 594.88,96.480003 598.23999,86.080002 601.12,75.519997 603.52002,64.959999 605.76001,54.240002 607.52002,43.52 608.79999,32.639999 609.76001,21.76 610.40002,10.88 610.56,0 610.40002,-10.88 609.76001,-21.76 608.79999,-32.639999 607.52002,-43.52 605.76001,-54.240002 603.52002,-64.959999 601.12,-75.519997 598.23999,-86.080002 594.88,-96.480003 591.35998,-106.72 l -4,-10.08 -4.32,-10.08 -4.79999,-9.76 -4.95996,-9.6 -5.44,-9.6 -5.76001,-9.27999 L 556,-174.08 l -6.40002,-8.8 -6.56,-8.64 -7.03998,-8.32 -7.35999,-8.16 -7.52001,-7.84 -7.83997,-7.52 -8.16003,-7.36 -8.32001,-7.03999 -8.63999,-6.56002 -8.80001,-6.39999 -8.96,-6.07999 -9.27999,-5.76001 -9.60001,-5.44 -9.59998,-4.95999 -9.76001,-4.80002 -10.08001,-4.31998 -10.07999,-4 -10.23999,-3.52002 -10.40002,-3.35998 -10.56,-2.88001 -10.56,-2.39999 -10.72,-2.24002 -10.72,-1.75998 -10.87998,-1.28 -10.88,-0.96002 -10.88001,-0.63999 -10.88,-0.16 -10.88001,0.16 -10.88,0.63999 -10.87998,0.96002 -10.88,1.28 -10.72002,1.75998 -10.71998,2.24002 -10.56002,2.39999 -10.55999,2.88001 -10.4,3.35998 -10.24,3.52002 -10.08,4 -10.08001,4.31998 -9.75999,4.80002 -9.60001,4.95999 -9.59999,5.44 -9.28,5.76001 -8.96,6.07999 -8.8,6.39999 -8.64,6.56002 -8.32,7.03999 -8.160001,7.36 -7.839997,7.52 -7.520004,7.84 -7.36,8.16 -7.040001,8.32 -6.559998,8.64 -6.399998,8.8 -6.080001,8.96001 -5.759999,9.27999 -5.440002,9.6 -4.959999,9.6 -4.8,9.76 -4.319999,10.08 -4,10.08 L 15.68,-96.480003 12.32,-86.080002 9.44,-75.519997 7.04,-64.959999 4.8,-54.240002 3.04,-43.52 1.76,-32.639999 0.8,-21.76 0.16,-10.88 Z"
           style="fill:none;stroke:#000000;stroke-width:0.5;stroke-linecap:round;stroke-linejoin:round;stroke-miterlimit:10;stroke-dasharray:none;stroke-opacity:1"
           id="path4763" /></g><g
         id="g4765"
         transform="rotate(-90,858.72043,277.70455)"><path
           d="M 0,0 0.16,1.28 0.64,2.56 1.44,3.68 2.4,4.64 3.68,5.28 4.96,5.6 H 6.24 L 7.52,5.28 8.8,4.64 9.76,3.68 10.56,2.56 11.04,1.28 11.2,0 11.04,-1.28 10.56,-2.56 9.76,-3.68 8.8,-4.64 7.52,-5.28 6.24,-5.6 H 4.96 l -1.28,0.32 -1.28,0.64 -0.96,0.96 -0.8,1.12 -0.48,1.28 z"
           style="fill:none;stroke:#000000;stroke-width:0.5;stroke-linecap:round;stroke-linejoin:round;stroke-miterlimit:10;stroke-dasharray:none;stroke-opacity:1"
           id="path4767" /></g><g
         id="g4769"
         transform="rotate(-90,782.88043,-5.495421)"><path
           d="M 0,0 0.16,1.28 0.64,2.56 1.44,3.68 2.4,4.64 3.68,5.28 4.96,5.6 H 6.24 L 7.52,5.28 8.8,4.64 9.76,3.68 10.56,2.56 11.04,1.28 11.2,0 11.04,-1.28 10.56,-2.56 9.76,-3.68 8.8,-4.64 7.52,-5.28 6.24,-5.6 H 4.96 l -1.28,0.32 -1.28,0.64 -0.96,0.96 -0.8,1.12 -0.48,1.28 z"
           style="fill:none;stroke:#000000;stroke-width:0.5;stroke-linecap:round;stroke-linejoin:round;stroke-miterlimit:10;stroke-dasharray:none;stroke-opacity:1"
           id="path4771" /></g><g
         id="g4773"
         transform="rotate(-90,538.96044,238.42456)"><path
           d="M 0,0 0.16,1.28 0.64,2.56 1.44,3.68 2.4,4.64 3.68,5.28 4.96,5.6 H 6.24 L 7.52,5.28 8.8,4.64 9.76,3.68 10.56,2.56 11.04,1.28 11.2,0 11.04,-1.28 10.56,-2.56 9.76,-3.68 8.8,-4.64 7.52,-5.28 6.24,-5.6 H 4.96 l -1.28,0.32 -1.28,0.64 -0.96,0.96 -0.8,1.12 -0.48,1.28 z"
           style="fill:none;stroke:#000000;stroke-width:0.5;stroke-linecap:round;stroke-linejoin:round;stroke-miterlimit:10;stroke-dasharray:none;stroke-opacity:1"
           id="path4775" /></g><g
         id="g4777"
         transform="rotate(-90,822.16043,314.26455)"><path
           d="M 0,0 0.16,1.28 0.64,2.56 1.44,3.68 2.4,4.64 3.68,5.28 4.96,5.6 H 6.24 L 7.52,5.28 8.8,4.64 9.76,3.68 10.56,2.56 11.04,1.28 11.2,0 11.04,-1.28 10.56,-2.56 9.76,-3.68 8.8,-4.64 7.52,-5.28 6.24,-5.6 H 4.96 l -1.28,0.32 -1.28,0.64 -0.96,0.96 -0.8,1.12 -0.48,1.28 z"
           style="fill:none;stroke:#000000;stroke-width:0.5;stroke-linecap:round;stroke-linejoin:round;stroke-miterlimit:10;stroke-dasharray:none;stroke-opacity:1"
           id="path4779" /></g><g
         id="g4781"
         transform="rotate(-90,732.80045,-18.935456)"><path
           d="M 0,0 0.16,1.28 0.64,2.56 1.44,3.68 2.4,4.64 3.68,5.28 4.96,5.6 H 6.24 L 7.52,5.28 8.8,4.64 9.76,3.68 10.56,2.56 11.04,1.28 11.2,0 11.04,-1.28 10.56,-2.56 9.76,-3.68 8.8,-4.64 7.52,-5.28 6.24,-5.6 H 4.96 l -1.28,0.32 -1.28,0.64 -0.96,0.96 -0.8,1.12 -0.48,1.28 z"
           style="fill:none;stroke:#000000;stroke-width:0.5;stroke-linecap:round;stroke-linejoin:round;stroke-miterlimit:10;stroke-dasharray:none;stroke-opacity:1"
           id="path4783" /></g><g
         id="g4785"
         transform="rotate(-90,525.52043,188.34455)"><path
           d="M 0,0 0.16,1.28 0.64,2.56 1.44,3.68 2.4,4.64 3.68,5.28 4.96,5.6 H 6.24 L 7.52,5.28 8.8,4.64 9.76,3.68 10.56,2.56 11.04,1.28 11.2,0 11.04,-1.28 10.56,-2.56 9.76,-3.68 8.8,-4.64 7.52,-5.28 6.24,-5.6 H 4.96 l -1.28,0.32 -1.28,0.64 -0.96,0.96 -0.8,1.12 -0.48,1.28 z"
           style="fill:none;stroke:#000000;stroke-width:0.5;stroke-linecap:round;stroke-linejoin:round;stroke-miterlimit:10;stroke-dasharray:none;stroke-opacity:1"
           id="path4787" /></g><g
         id="g4789"
         transform="rotate(-90,544.24044,241.94456)"><path
           d="m 0,0 -9.12,-2.88 -9.28,-2.56 -9.12,-2.4 -9.439999,-1.92 -9.440003,-1.6 -9.439998,-1.12 -9.439999,-0.96 -9.599998,-0.48 -9.600006,-0.16 -9.439995,0.16 -9.600002,0.64 -9.44,0.8 -9.6,1.28 -9.28,1.6 -9.44,1.92 -9.28,2.4 -9.11999,2.56 -9.12001,3.04 -8.95999,3.36 -8.80001,3.68 -8.64,4 -8.47999,4.32 -8.48001,4.48 -8.16001,4.960001 -8,5.279999 -7.67999,5.44 -7.67999,5.919998 -7.36,6.080002 -7.04,6.400002 -6.88,6.559997 -6.72,6.880001 -6.24002,7.040001 -6.23999,7.360001 -5.76001,7.68 -5.59998,7.68 -5.12002,7.999998 -4.96,8.16 -4.63998,8.32 -4.32001,8.64 -4,8.64 -3.67999,8.8 -3.36002,8.96001 -3.04,8.95999 -2.56,9.28 -2.4,9.28 -1.91998,9.27999"
           style="fill:none;stroke:#000000;stroke-width:0.5;stroke-linecap:round;stroke-linejoin:round;stroke-miterlimit:10;stroke-dasharray:none;stroke-opacity:1"
           id="path4791" /></g><g
         id="g4793"
         transform="rotate(-90,878.16043,743.70455)"><path
           d="m 835.52002,167.84 v 16.48001 l -321.44,185.6 -14.24002,-8.32"
           style="fill:none;stroke:#000000;stroke-width:0.5;stroke-linecap:round;stroke-linejoin:round;stroke-miterlimit:10;stroke-dasharray:none;stroke-opacity:1"
           id="path4795" /></g><g
         id="g4797"
         transform="rotate(-90,857.20043,264.50457)"><path
           d="m 0,0 1.92,9.28 2.4,9.279999 2.56,9.280001 3.04,8.959999 3.36,8.959999 3.679999,8.800003 4,8.64 4.320002,8.639995 L 29.92,80.160004 34.880001,88.32 40,96.32 l 5.599998,7.68 5.760003,7.68 6.239997,7.36 6.240002,7.04 6.719998,6.88001 6.880004,6.55999 7.040001,6.4 7.359993,6.08 7.680001,5.92 7.680003,5.44 8,5.28 8.16,4.96001 8.48,4.47999 8.48001,4.31999 8.64,4 8.79998,3.68001 8.96001,3.36 9.12,3.04 9.12001,2.55999 9.27999,2.40001 9.43999,1.92 9.28002,1.60001 9.59999,1.27999 9.44,0.79999 9.60001,0.64 9.43998,0.16001 9.60002,-0.16001 9.59998,-0.47999 9.44,-0.96 9.44001,-1.12001 9.44,-1.59999 9.44,-1.91999 9.12,-2.40001 9.27999,-2.56 9.12,-2.88001"
           style="fill:none;stroke:#000000;stroke-width:0.5;stroke-linecap:round;stroke-linejoin:round;stroke-miterlimit:10;stroke-dasharray:none;stroke-opacity:1"
           id="path4799" /></g><g
         id="g4801"
         transform="rotate(-90,878.16043,743.70455)"><path
           d="m 499.84,458.39999 14.24002,-8.32 321.44,185.6 v 16.47998"
           style="fill:none;stroke:#000000;stroke-width:0.5;stroke-linecap:round;stroke-linejoin:round;stroke-miterlimit:10;stroke-dasharray:none;stroke-opacity:1"
           id="path4803" /></g><g
         id="g4805"
         transform="rotate(-90,720.32044,-17.815426)"><path
           d="m 0,0 7.04,-6.4 6.88,-6.72 6.56,-6.88 6.399999,-7.040001 6.08,-7.360001 5.760002,-7.68 5.599999,-7.839996 5.119999,-8 4.960003,-8.160004 4.639999,-8.32 4.16,-8.479995 3.999996,-8.800003 3.68,-8.8 3.360001,-8.96 2.880005,-9.12 2.719993,-9.12 2.240006,-9.28001 L 84,-146.24 l 1.599998,-9.43999 1.279999,-9.44 0.959999,-9.60001 0.480004,-9.44 0.160003,-9.59999 L 88.32,-203.36 87.839996,-212.8 86.879997,-222.39999 85.599998,-231.84 84,-241.28 l -1.919998,-9.28 -2.240006,-9.28 -2.719993,-9.11999 -2.880005,-9.12 -3.360001,-8.96002 -3.68,-8.79999 -3.999996,-8.80001 -4.16,-8.47999 -4.639999,-8.32 -4.960003,-8.16001 -5.119999,-8 -5.599999,-7.83999 -5.760002,-7.68 -6.08,-7.36001 -6.399999,-7.03998 -6.56,-6.88 L 7.04,-381.12 0,-387.51999"
           style="fill:none;stroke:#000000;stroke-width:0.5;stroke-linecap:round;stroke-linejoin:round;stroke-miterlimit:10;stroke-dasharray:none;stroke-opacity:1"
           id="path4807" /></g><g
         id="g4809"
         transform="rotate(-90,878.16043,743.70455)"><path
           d="M 919.35998,603.84003 905.12,595.52002 V 224.48 l 14.23998,-8.32"
           style="fill:none;stroke:#000000;stroke-width:0.5;stroke-linecap:round;stroke-linejoin:round;stroke-miterlimit:10;stroke-dasharray:none;stroke-opacity:1"
           id="path4811" /></g><g
         id="g4813"
         transform="rotate(-90,878.16043,743.70455)"><path
           d="m 477.44,396.16 -0.16,6.88001 -0.16,6.88 0.16,6.87998 0.16,6.88"
           style="fill:none;stroke:#000000;stroke-width:0.5;stroke-linecap:round;stroke-linejoin:round;stroke-miterlimit:10;stroke-dasharray:none;stroke-opacity:1"
           id="path4815" /></g><g
         id="g4817"
         transform="rotate(-90,878.16043,743.70455)"><path
           d="M 876.79999,165.75999 477.44,396.32001"
           style="fill:none;stroke:#000000;stroke-width:0.5;stroke-linecap:round;stroke-linejoin:round;stroke-miterlimit:10;stroke-dasharray:none;stroke-opacity:1"
           id="path4819" /></g><g
         id="g4821"
         transform="rotate(-90,878.16043,743.70455)"><path
           d="m 900.47998,179.52 -5.91998,-3.68 -5.76001,-3.51999 -6.08002,-3.36 -6.07996,-3.20002"
           style="fill:none;stroke:#000000;stroke-width:0.5;stroke-linecap:round;stroke-linejoin:round;stroke-miterlimit:10;stroke-dasharray:none;stroke-opacity:1"
           id="path4823" /></g><g
         id="g4825"
         transform="rotate(-90,878.16043,743.70455)"><path
           d="M 900.47998,640.47998 V 179.52"
           style="fill:none;stroke:#000000;stroke-width:0.5;stroke-linecap:round;stroke-linejoin:round;stroke-miterlimit:10;stroke-dasharray:none;stroke-opacity:1"
           id="path4827" /></g><g
         id="g4829"
         transform="rotate(-90,878.16043,743.70455)"><path
           d="m 876.64001,654.08002 6.07996,-3.20002 6.08002,-3.35998 L 894.56,644 l 5.91998,-3.67999"
           style="fill:none;stroke:#000000;stroke-width:0.5;stroke-linecap:round;stroke-linejoin:round;stroke-miterlimit:10;stroke-dasharray:none;stroke-opacity:1"
           id="path4831" /></g><g
         id="g4833"
         transform="rotate(-90,878.16043,743.70455)"><path
           d="m 477.44,423.67999 399.35999,230.56"
           style="fill:none;stroke:#000000;stroke-width:0.5;stroke-linecap:round;stroke-linejoin:round;stroke-miterlimit:10;stroke-dasharray:none;stroke-opacity:1"
           id="path4835" /></g><g
         id="g4837"
         transform="rotate(-90,878.16043,743.70455)"><path
           d="m 485.28,396.16 -0.16,6.88001 -0.16001,6.88 0.16001,6.87998 0.16,6.88"
           style="fill:none;stroke:#000000;stroke-width:0.5;stroke-linecap:round;stroke-linejoin:round;stroke-miterlimit:10;stroke-dasharray:none;stroke-opacity:1"
           id="path4839" /></g><g
         id="g4841"
         transform="rotate(-90,878.16043,743.70455)"><path
           d="m 872.96002,647.67999 6.07996,-3.20001 5.92004,-3.35998 5.91998,-3.52002 5.91999,-3.68"
           style="fill:none;stroke:#000000;stroke-width:0.5;stroke-linecap:round;stroke-linejoin:round;stroke-miterlimit:10;stroke-dasharray:none;stroke-opacity:1"
           id="path4843" /></g><g
         id="g4845"
         transform="rotate(-90,878.16043,743.70455)"><path
           d="m 896.64001,186.24 -5.92004,-3.68 -5.91998,-3.52001 -5.91999,-3.36 -6.08001,-3.19999"
           style="fill:none;stroke:#000000;stroke-width:0.5;stroke-linecap:round;stroke-linejoin:round;stroke-miterlimit:10;stroke-dasharray:none;stroke-opacity:1"
           id="path4847" /></g><g
         id="g4849"
         transform="rotate(-90,718.96045,-12.455441)"><path
           d="m 0,0 7.2,-6.4 6.88,-6.72 6.559999,-7.04 6.400002,-7.200001 5.919998,-7.52 5.760002,-7.84 5.439999,-7.84 5.119999,-8.16 4.800003,-8.32 4.479999,-8.639999 4.16,-8.64 3.839997,-8.800003 3.520004,-8.959997 3.040001,-9.12 2.719993,-9.28 2.400002,-9.27999 L 80.32,-139.2 l 1.599998,-9.44 1.440003,-9.6 0.800003,-9.6 0.639999,-9.6 0.159996,-9.59999 -0.159996,-9.60001 -0.639999,-9.6 -0.800003,-9.6 -1.440003,-9.6 -1.599998,-9.44 -2.080002,-9.44001 -2.400002,-9.28 -2.719993,-9.27999 -3.040001,-9.12 -3.520004,-8.95999 -3.839997,-8.80002 -4.16,-8.63998 -4.479999,-8.64002 -4.800003,-8.31998 -5.119999,-8.16 -5.439999,-7.84 -5.760002,-7.84002 -5.919998,-7.51999 -6.400002,-7.20001 -6.559999,-7.03998 -6.88,-6.72 -7.2,-6.4"
           style="fill:none;stroke:#000000;stroke-width:0.5;stroke-linecap:round;stroke-linejoin:round;stroke-miterlimit:10;stroke-dasharray:none;stroke-opacity:1"
           id="path4851" /></g><g
         id="g4853"
         transform="rotate(-90,853.36042,260.66456)"><path
           d="m 0,0 1.92,9.28 2.4,9.439999 2.88,9.120001 3.04,9.119999 3.52,8.959999 3.84,8.800003 L 21.76,63.52 26.24,72 31.040001,80.32 36.16,88.480003 41.599998,96.32 l 5.760003,7.84 6.079998,7.52 6.400001,7.2 6.560002,7.04 6.879997,6.72 7.200004,6.39999 7.359993,6.24001 7.520005,5.92 7.839999,5.6 8,5.28 8.32,4.95999 8.48,4.64 8.48,4.32001 8.8,4 8.96,3.67999 8.96,3.20001 9.28,3.04 9.27999,2.56 9.28,2.24 9.44001,1.76 9.6,1.6 9.59999,1.12 9.44,0.64 9.76001,0.48001 h 9.6 l 9.59999,-0.48001 9.6,-0.64 9.60001,-1.12 9.44,-1.44 9.44,-1.92 9.44001,-2.24 9.27999,-2.56 9.12,-2.88001"
           style="fill:none;stroke:#000000;stroke-width:0.5;stroke-linecap:round;stroke-linejoin:round;stroke-miterlimit:10;stroke-dasharray:none;stroke-opacity:1"
           id="path4855" /></g><g
         id="g4857"
         transform="rotate(-90,549.52042,240.50454)"><path
           d="m 0,0 -9.12,-2.88 -9.28,-2.56 -9.44,-2.24 -9.439999,-1.92 -9.440002,-1.44 -9.599999,-1.12 -9.599998,-0.64 -9.599999,-0.48 h -9.600006 l -9.759994,0.48 -9.440003,0.64 -9.6,1.12 -9.6,1.6 -9.44001,1.76 -9.27999,2.24 -9.28,2.56 -9.28,3.04 -8.95999,3.2 -8.96001,3.68 -8.8,4 -8.48,4.32 -8.48,4.64 -8.32,4.959999 -8,5.280001 -7.84,5.6 -7.52,5.919998 -7.36,6.240002 -7.2,6.400002 -6.88001,6.719997 -6.55999,7.040005 -6.4,7.199997 -6.08001,7.519996 -5.75998,7.840004 -5.44001,7.839997 -5.11999,8.160002 -4.80002,8.32 -4.47998,8.48 -4.16,8.80001 -3.84,8.79998 -3.52002,8.96001 -3.03998,9.12 -2.88,9.12001 -2.4,9.43998 -1.92001,9.28"
           style="fill:none;stroke:#000000;stroke-width:0.5;stroke-linecap:round;stroke-linejoin:round;stroke-miterlimit:10;stroke-dasharray:none;stroke-opacity:1"
           id="path4859" /></g><g
         id="g4861"
         transform="rotate(-90,764.72043,-19.655426)"><path
           d="M 0,0 V 2.08 4.32 M 0,0 -395.67999,-228.48 m -3.68,2.24 1.91999,-1.12 1.76001,-1.12 m 0,-22.88 -1.76001,-1.12 -1.91999,-1.12001 m 3.68,2.24001 L 0,-479.84 m 0,-4.32 v 2.23999 2.08001 m 20,11.51999 1.92,-1.11999 1.76,-0.95999 M 20,-468.32001 V -11.52 M 23.68,-9.44 21.92,-10.4 20,-11.52 M 32,-423.35999 42.080002,-429.12 m 0.479999,-4.64001 -0.319999,2.40002 -0.16,2.23999 M 28.32,-425.44 32,-423.35999 M 28.32,-54.400002 32,-56.48 v -366.87999 m 10.080002,372.639989 0.16,2.240001 0.319999,2.399998 M 42.080002,-50.720001 32,-56.48 M -44.959999,-12 v 11.52 m 3.68,2.72 -1.760002,-1.44 -1.919998,-1.28 m 3.68,-13.76 -3.68,2.24 M -362.72,-199.84 v 4.48 L -44.959999,-12 M -372.64001,-189.60001 -374.72,-190.56 l -2.23999,-0.96 m 4.31998,1.91999 9.92001,-5.75999 m 0,-89.12001 -9.92001,-5.75998 m -4.31998,1.91998 2.23999,-0.95999 2.07999,-0.95999 M -362.72,-280 v -4.48001 m 321.440001,-181.12 -3.68,-2.23999 L -362.72,-284.48001 m 317.760001,-194.87998 1.919998,-1.28002 1.760002,-1.43998 m -3.68,2.72 V -467.84"
           style="fill:none;stroke:#000000;stroke-width:0.5;stroke-linecap:round;stroke-linejoin:round;stroke-miterlimit:10;stroke-dasharray:none;stroke-opacity:1"
           id="path4863" /></g><g
         id="g4865"
         transform="rotate(-90,878.16043,743.70455)"><path
           d="m 896.64001,186.24 -3.35998,-2.08 -3.20001,-1.92"
           style="fill:none;stroke:#000000;stroke-width:0.5;stroke-linecap:round;stroke-linejoin:round;stroke-miterlimit:10;stroke-dasharray:none;stroke-opacity:1"
           id="path4867" /></g><g
         id="g4869"
         transform="rotate(-90,878.16043,743.70455)"><path
           d="m 879.67999,176.16 -3.52002,-1.92 -3.35998,-1.76"
           style="fill:none;stroke:#000000;stroke-width:0.5;stroke-linecap:round;stroke-linejoin:round;stroke-miterlimit:10;stroke-dasharray:none;stroke-opacity:1"
           id="path4871" /></g><g
         id="g4873"
         transform="rotate(-90,878.16043,743.70455)"><path
           d="m 872.96002,647.67999 3.35999,-1.76001 L 879.84003,644"
           style="fill:none;stroke:#000000;stroke-width:0.5;stroke-linecap:round;stroke-linejoin:round;stroke-miterlimit:10;stroke-dasharray:none;stroke-opacity:1"
           id="path4875" /></g><g
         id="g4877"
         transform="rotate(-90,878.16043,743.70455)"><path
           d="M 890.23999,637.91998 893.44,636 l 3.35999,-2.08002"
           style="fill:none;stroke:#000000;stroke-width:0.5;stroke-linecap:round;stroke-linejoin:round;stroke-miterlimit:10;stroke-dasharray:none;stroke-opacity:1"
           id="path4879" /></g><g
         id="g4881"
         transform="rotate(-90,878.16043,743.70455)"><path
           d="m 485.12,396.16 -0.16001,3.84 -0.16,3.84"
           style="fill:none;stroke:#000000;stroke-width:0.5;stroke-linecap:round;stroke-linejoin:round;stroke-miterlimit:10;stroke-dasharray:none;stroke-opacity:1"
           id="path4883" /></g><g
         id="g4885"
         transform="rotate(-90,878.16043,743.70455)"><path
           d="m 484.95999,416 0.16001,3.84 0.16,3.83999"
           style="fill:none;stroke:#000000;stroke-width:0.5;stroke-linecap:round;stroke-linejoin:round;stroke-miterlimit:10;stroke-dasharray:none;stroke-opacity:1"
           id="path4887" /></g><g
         id="g4889"
         transform="rotate(-90,760.3204,-18.295441)"><path
           d="m 0,0 -12.64,-21.76 m -357.43999,-206.4 h -24.96002 m 0,-12 h 24.96002 M -12.64,-446.56 0,-468.32001 m 10.4,6.08002 -12.48,21.75998 m 0,412.64001 12.48,21.76"
           style="fill:none;stroke:#000000;stroke-width:0.5;stroke-linecap:round;stroke-linejoin:round;stroke-miterlimit:10;stroke-dasharray:none;stroke-opacity:1"
           id="path4891" /></g><g
         id="g4893"
         transform="rotate(-90,878.16043,743.70455)"><path
           d="m 880.47998,606.08002 3.84003,6.55999 -23.68,13.59998 -3.67999,-6.56 z"
           style="fill:none;stroke:#000000;stroke-width:0.5;stroke-linecap:round;stroke-linejoin:round;stroke-miterlimit:10;stroke-dasharray:none;stroke-opacity:1"
           id="path4895" /></g><g
         id="g4897"
         transform="rotate(-90,746.08045,1.864564)"><path
           d="M 0,0 -50.560001,-87.68 -61.119999,-81.599998 -10.4,6.08 m -39.519998,-68.160002 -25.440003,-14.720001 36,-20.799995 v 29.439994 m -277.439989,23.520005 54.4,-54.400002 M -270.56,-103.68 l -51.83999,51.84 m 172,99.200001 19.03999,-70.720002 m -8.16,-4.799999 -20,74.400002 m -19.36,-85.280003 -54.4,-31.360001 -55.51999,55.520002 m 109.91999,-24.160001 -20.32,75.84"
           style="fill:none;stroke:#000000;stroke-width:0.5;stroke-linecap:round;stroke-linejoin:round;stroke-miterlimit:10;stroke-dasharray:none;stroke-opacity:1"
           id="path4899" /></g><g
         id="g4901"
         transform="rotate(-90,878.16043,743.70455)"><path
           d="m 517.44,423.67999 h -7.67999 V 396.32001 H 517.44 Z"
           style="fill:none;stroke:#000000;stroke-width:0.5;stroke-linecap:round;stroke-linejoin:round;stroke-miterlimit:10;stroke-dasharray:none;stroke-opacity:1"
           id="path4903" /></g><g
         id="g4905"
         transform="rotate(-90,827.44042,276.98455)"><path
           d="M 0,0 H 101.28 V -12 H 0 M 78.720001,-12 104.32,-26.719999 V 14.72 L 78.720001,0 m 118.240009,-252 20,74.39999 m 8.15998,-4.79998 -19.03999,-70.72 M 34.080002,-153.92 l 51.839996,51.84 m 8.160004,-4.64 L 39.68,-161.11999 M 123.2,-135.36 177.60001,-166.72 157.28,-242.56 m -34.08,107.2 -55.52,-55.52"
           style="fill:none;stroke:#000000;stroke-width:0.5;stroke-linecap:round;stroke-linejoin:round;stroke-miterlimit:10;stroke-dasharray:none;stroke-opacity:1"
           id="path4907" /></g><g
         id="g4909"
         transform="rotate(-90,878.16043,743.70455)"><path
           d="m 880.47998,213.92 -23.51996,-13.59999 3.67999,-6.56002 23.68,13.60001 z"
           style="fill:none;stroke:#000000;stroke-width:0.5;stroke-linecap:round;stroke-linejoin:round;stroke-miterlimit:10;stroke-dasharray:none;stroke-opacity:1"
           id="path4911" /></g><g
         id="g4913"
         transform="rotate(-90,548.48042,209.86454)"><path
           d="M 0,0 -50.720001,87.68 -40.16,93.760002 10.4,6.08 M -28.959999,74.239998 V 103.68 l -36,-20.800003 L -39.52,68.160004 M -179.84,188.32001 -93.120003,138.24"
           style="fill:none;stroke:#000000;stroke-width:0.5;stroke-linecap:round;stroke-linejoin:round;stroke-miterlimit:10;stroke-dasharray:none;stroke-opacity:1"
           id="path4915" /></g><g
         id="g4917"
         transform="rotate(-90,732.64043,205.70454)"><path
           d="m 0,0 -2.24,-1.44 -2.4,-0.96 -2.72,-0.8 -2.56,-0.32 -2.72,-0.16 -2.72,0.32 -2.56,0.64 -2.56,0.96 -2.399999,1.12 -2.240002,1.6 -1.92,1.76 L -28.799999,4.8 -30.24,7.04 -31.360001,9.6 -32.32,12.16 l -0.479999,2.56 -0.16,2.720001 0.16,2.719999 0.479999,2.559999 0.959999,2.560002 L -30.24,27.84 l 1.440001,2.24 1.759998,2.08 1.92,1.759998 2.240002,1.600002 2.399999,1.119999 2.56,0.959999 2.56,0.640004 2.72,0.319999 2.72,-0.159999 2.56,-0.32 2.72,-0.800003 L -2.24,36.32 0,34.880001"
           style="fill:none;stroke:#000000;stroke-width:0.5;stroke-linecap:round;stroke-linejoin:round;stroke-miterlimit:10;stroke-dasharray:none;stroke-opacity:1"
           id="path4919" /></g><g
         id="g4921"
         transform="rotate(-90,878.16043,743.70455)"><path
           d="M 770.40002,477.60001 683.67999,427.51999"
           style="fill:none;stroke:#000000;stroke-width:0.5;stroke-linecap:round;stroke-linejoin:round;stroke-miterlimit:10;stroke-dasharray:none;stroke-opacity:1"
           id="path4923" /></g><g
         id="g4925"
         transform="rotate(-90,731.76043,119.70454)"><path
           d="M 0,0 V 2.72 L 0.32,5.44 0.96,8 l 0.96,2.56 1.28,2.24 1.6,2.24 1.92,1.919999 2.08,1.76 2.24,1.440001 2.4,1.120001 L 16,22.08 l 2.719999,0.479999 2.720002,0.16 2.719999,-0.16 L 26.719999,21.92 29.280001,21.120001 31.68,19.84 33.919998,18.4 36,16.639999 37.759998,14.56 39.200001,12.32 40.48,9.92 41.439999,7.52 41.919998,4.8 42.240002,2.08 42.080002,-0.48 41.759998,-3.2 40.959999,-5.76 39.84,-8.32 l -1.439998,-2.24 -1.760003,-2.08 -1.919998,-1.92 -2.080002,-1.6 L 30.24,-17.440001"
           style="fill:none;stroke:#000000;stroke-width:0.5;stroke-linecap:round;stroke-linejoin:round;stroke-miterlimit:10;stroke-dasharray:none;stroke-opacity:1"
           id="path4927" /></g><g
         id="g4929"
         transform="rotate(-90,878.16043,743.70455)"><path
           d="M 800.64001,359.84 V 460.16"
           style="fill:none;stroke:#000000;stroke-width:0.5;stroke-linecap:round;stroke-linejoin:round;stroke-miterlimit:10;stroke-dasharray:none;stroke-opacity:1"
           id="path4931" /></g><g
         id="g4933"
         transform="rotate(-90,657.76043,163.46455)"><path
           d="m 0,0 2.4,-1.28 2.08,-1.6 1.92,-1.92 1.76,-2.08 1.44,-2.24 1.12,-2.56 0.8,-2.56 0.32,-2.719999 L 12,-19.52 11.68,-22.24 11.2,-24.959999 10.24,-27.360001 8.96,-29.76 7.52,-32 5.76,-34.080002 3.68,-35.84 l -2.24,-1.439999 -2.4,-1.280002 -2.56,-0.8 L -6.08,-40 l -2.72,-0.16 -2.72,0.16 -2.72,0.48 -2.559999,0.799999 -2.400002,1.120003 -2.24,1.439998 -2.079999,1.759998 -1.920001,1.920002 -1.6,2.24 L -28.32,-28 -29.280001,-25.440001 -29.92,-22.879999 -30.24,-20.16 v 2.719999"
           style="fill:none;stroke:#000000;stroke-width:0.5;stroke-linecap:round;stroke-linejoin:round;stroke-miterlimit:10;stroke-dasharray:none;stroke-opacity:1"
           id="path4935" /></g><g
         id="g4937"
         transform="rotate(-90,600.24045,196.02456)"><path
           d="M 0,0 -232.48,134.24 M 10.4,274.39999 V 6.08 M -232.48,146.24 0,280.48001 M 157.60001,231.03999 83.199997,211.2 m 0,9.28 70.880003,19.04 m 0,-198.560001 L 83.199997,60 m 0,9.279999 74.400013,-19.84 M 93.440002,108.8 v 62.87999 L 169.28,192 M 93.440002,108.8 169.28,88.480003"
           style="fill:none;stroke:#000000;stroke-width:0.5;stroke-linecap:round;stroke-linejoin:round;stroke-miterlimit:10;stroke-dasharray:none;stroke-opacity:1"
           id="path4939" /></g></g></g></svg>