<?xml version="1.0" encoding="UTF-8" standalone="no"?>
<svg
   xmlns:dc="http://purl.org/dc/elements/1.1/"
   xmlns:cc="http://creativecommons.org/ns#"
   xmlns:rdf="http://www.w3.org/1999/02/22-rdf-syntax-ns#"
   xmlns:svg="http://www.w3.org/2000/svg"
   xmlns="http://www.w3.org/2000/svg"
   viewBox="0 0 1423.198 819.20087"
   height="819.20087"
   width="1423.198"
   xml:space="preserve"
   id="svg5201"
   version="1.1"><metadata
     id="metadata5207"><rdf:RDF><cc:Work
         rdf:about=""><dc:format>image/svg+xml</dc:format><dc:type
           rdf:resource="http://purl.org/dc/dcmitype/StillImage" /><dc:title></dc:title></cc:Work></rdf:RDF></metadata><defs
     id="defs5205"><marker
       orient="auto"
       refY="0"
       refX="0"
       id="marker10782"
       style="overflow:visible"><path
         id="path10780"
         style="fill:#000000;fill-opacity:1;fill-rule:evenodd;stroke:#000000;stroke-width:0.625;stroke-linejoin:round;stroke-opacity:1"
         d="M 8.7185878,4.0337352 -2.2072895,0.01601326 8.7185884,-4.0017078 c -1.7454984,2.3720609 -1.7354408,5.6174519 -6e-7,8.035443 z"
         transform="matrix(1.1,0,0,1.1,1.1,0)" /></marker><marker
       style="overflow:visible"
       id="Arrow2Lstart"
       refX="0"
       refY="0"
       orient="auto"><path
         transform="matrix(1.1,0,0,1.1,1.1,0)"
         d="M 8.7185878,4.0337352 -2.2072895,0.01601326 8.7185884,-4.0017078 c -1.7454984,2.3720609 -1.7354408,5.6174519 -6e-7,8.035443 z"
         style="fill:#000000;fill-opacity:1;fill-rule:evenodd;stroke:#000000;stroke-width:0.625;stroke-linejoin:round;stroke-opacity:1"
         id="path10200" /></marker><clipPath
       id="clipPath5317"
       clipPathUnits="userSpaceOnUse"><path
         style="clip-rule:evenodd"
         id="path5315"
         d="M -58.240002,-132.64 V 82.720001 H 102.24 V -132.64 Z" /></clipPath><clipPath
       id="clipPath5335"
       clipPathUnits="userSpaceOnUse"><path
         style="clip-rule:evenodd"
         id="path5333"
         d="m 717.76001,1104 v 215.36 H 878.23999 V 1104 Z" /></clipPath><clipPath
       id="clipPath5367"
       clipPathUnits="userSpaceOnUse"><path
         style="clip-rule:evenodd"
         id="path5365"
         d="m 717.76001,1104 v 215.36 H 878.23999 V 1104 Z" /></clipPath><clipPath
       id="clipPath5403"
       clipPathUnits="userSpaceOnUse"><path
         style="clip-rule:evenodd"
         id="path5401"
         d="M -54.240002,-115.68 V 99.68 H 106.24 v -215.36 z" /></clipPath><clipPath
       id="clipPath5421"
       clipPathUnits="userSpaceOnUse"><path
         style="clip-rule:evenodd"
         id="path5419"
         d="M -106.88,-143.03999 V 72.32 H 53.599998 v -215.35999 z" /></clipPath><clipPath
       id="clipPath5467"
       clipPathUnits="userSpaceOnUse"><path
         style="clip-rule:evenodd"
         id="path5465"
         d="M -175.36,-330.88 V 163.36 H 137.92 V -330.88 Z" /></clipPath><clipPath
       id="clipPath5481"
       clipPathUnits="userSpaceOnUse"><path
         style="clip-rule:evenodd"
         id="path5479"
         d="M -84.800003,-163.2 V 331.04001 H 228.48 V -163.2 Z" /></clipPath></defs><g
     transform="translate(234.19628,-345.73549)"
     id="g5209"><g
       transform="matrix(1.2645658,0,0,1.2645658,-241.22432,-339.90536)"
       id="g11043"><g
         id="g5433"
         transform="rotate(-90,918.9186,-26.309417)"><path
           d="M 0,0 -9.28,-3.52 -18.559999,-6.4 -28.16,-8.64 -37.759998,-10.4 -47.52,-11.36 l -9.759999,-0.48 -9.760002,0.16 -9.760002,0.8 -9.759995,1.44 -9.600006,2.08 -9.439996,2.56 -9.28,3.2 -8.96,3.84 -8.8,4.32 -8.47999,4.96"
           style="fill:none;stroke:#000000;stroke-width:1.91999996;stroke-linecap:round;stroke-linejoin:round;stroke-miterlimit:10;stroke-dasharray:none;stroke-opacity:1"
           id="path5435" /></g><g
         id="g5437"
         transform="rotate(-90,918.9986,-26.229417)"><path
           d="M 0,0 4.16,1.44 8.48,2.72 12.8,3.52 17.280001,4 21.76,4.16 26.24,3.84 30.559999,3.36 35.040001,2.4 l 4.16,-1.44 4.16,-1.6 4,-2.08 3.84,-2.24 3.52,-2.56 3.360001,-3.04 3.199997,-3.04 2.880005,-3.520001 2.559997,-3.679998 2.239998,-3.84 1.919998,-4 1.600006,-4.16 1.279999,-4.16 0.799996,-4.48 0.639999,-4.319999 0.160004,-4.480004 -0.160004,-4.479999 -0.639999,-4.32 -0.799996,-4.479999 -1.279999,-4.16 -1.600006,-4.159996 -1.919998,-4 -2.239998,-3.840004 -2.559997,-3.680001 -2.880005,-3.519996 -3.199997,-3.040001 -3.360001,-3.040001 -3.52,-2.559998 -3.84,-2.240005 -4,-2.079994 -4.16,-1.600004 -4.16,-1.44 -4.480002,-0.96 -4.319999,-0.48 -4.48,-0.32 -4.479999,0.16 L 12.8,-104 l -4.32,0.8 -4.32,1.28 -4.16,1.44"
           style="fill:none;stroke:#000000;stroke-width:1.91999996;stroke-linecap:round;stroke-linejoin:bevel;stroke-miterlimit:10;stroke-dasharray:none;stroke-opacity:1"
           id="path5439" /></g><g
         id="g5441"
         transform="rotate(-90,933.4786,100.2506)"><path
           d="m 0,0 8.48,4.96 8.800001,4.32 8.959999,3.84 9.28,3.2 9.439999,2.559999 9.600002,2.08 L 64.32,22.4 l 9.760002,0.800001 9.759994,0.16 9.760002,-0.480002 L 103.36,21.92 l 9.6,-1.76 9.6,-2.24 9.28,-2.88 9.27999,-3.52"
           style="fill:none;stroke:#000000;stroke-width:1.91999996;stroke-linecap:round;stroke-linejoin:round;stroke-miterlimit:10;stroke-dasharray:none;stroke-opacity:1"
           id="path5443" /></g><g
         id="g5445"
         transform="rotate(-90,823.3186,535.21059)"><path
           d="M 324.79999,668.64001 V 545.12"
           style="fill:none;stroke:#000000;stroke-width:1.91999996;stroke-linecap:round;stroke-linejoin:round;stroke-miterlimit:10;stroke-dasharray:none;stroke-opacity:1"
           id="path5447" /></g><g
         id="g5449"
         transform="rotate(-90,846.9186,150.6506)"><path
           d="m 0,0 -0.16,-3.52 -0.48,-3.52 -0.96,-3.52 -1.12,-3.2 -1.6,-3.360001 L -6.08,-20.16 -8.16,-22.879999 -10.56,-25.6 -13.28,-28 -16,-30.08 -19.040001,-31.84 -22.4,-33.439999 -25.6,-34.560001 -29.120001,-35.52 -32.639999,-36 -36.16,-36.16 l -3.52,0.16 -3.520001,0.48 -3.52,0.959999 -3.199997,1.120002 -3.360001,1.599999 -3.040001,1.76 -2.720001,2.08 -2.719997,2.4 -2.400006,2.720001 L -66.239998,-20.16 -68,-17.120001 -69.599998,-13.76 -70.720001,-10.56 -71.68,-7.04 -72.160004,-3.52 -72.32,0"
           style="fill:none;stroke:#000000;stroke-width:1.91999996;stroke-linecap:round;stroke-linejoin:bevel;stroke-miterlimit:10;stroke-dasharray:none;stroke-opacity:1"
           id="path5451" /></g><g
         id="g5453"
         transform="rotate(-90,1081.7986,-11.909407)"><path
           d="m 0,0 0.16,3.52 0.48,3.52 0.96,3.52 1.12,3.2 1.6,3.360001 L 6.08,20.16 8.16,22.879999 10.56,25.6 13.28,28 16,30.08 19.040001,31.84 22.4,33.439999 25.6,34.560001 29.120001,35.52 32.639999,36 36.16,36.16 39.68,36 l 3.520001,-0.48 3.52,-0.959999 3.199997,-1.120002 L 53.279999,31.84 56.32,30.08 59.040001,28 61.759998,25.6 64.160004,22.879999 66.239998,20.16 68,17.120001 69.599998,13.76 70.720001,10.56 71.68,7.04 72.160004,3.52 72.32,0"
           style="fill:none;stroke:#000000;stroke-width:1.91999996;stroke-linecap:round;stroke-linejoin:bevel;stroke-miterlimit:10;stroke-dasharray:none;stroke-opacity:1"
           id="path5455" /></g><g
         id="g5457"
         transform="rotate(-90,823.3186,535.21059)"><path
           d="M 288.48001,408.16 V 805.59998"
           style="fill:none;stroke:#000000;stroke-width:1.91999996;stroke-linecap:round;stroke-linejoin:round;stroke-miterlimit:10;stroke-dasharray:none;stroke-opacity:1"
           id="path5459" /></g><g
         id="g5461"
         transform="rotate(-90,942.7586,-36.069397)"><g
           id="g5463"
           clip-path="url(#clipPath5467)"><path
             d="m 0,0 -5.28,-2.08 -5.6,-1.92 -5.6,-1.6 -5.6,-1.28 -5.76,-0.96 -5.759998,-0.64 -5.920002,-0.48 -5.759999,-0.16 -5.760002,0.16 -5.919998,0.48 -5.760002,0.64 -5.760002,0.96 -5.599999,1.28 L -79.68,-4 -85.279999,-2.08 -90.559998,0"
             style="fill:none;stroke:#000000;stroke-width:1.91999996;stroke-linecap:round;stroke-linejoin:bevel;stroke-miterlimit:10;stroke-dasharray:none;stroke-opacity:1"
             id="path5469" /></g></g><g
         id="g5471"
         transform="rotate(-90,823.3186,535.21059)"><path
           d="M 361.12,805.59998 V 690.56 m 0,-167.35999 V 408.16"
           style="fill:none;stroke:#000000;stroke-width:1.91999996;stroke-linecap:round;stroke-linejoin:round;stroke-miterlimit:10;stroke-dasharray:none;stroke-opacity:1"
           id="path5473" /></g><g
         id="g5475"
         transform="rotate(-90,904.1986,93.050603)"><g
           id="g5477"
           clip-path="url(#clipPath5481)"><path
             d="m 0,0 5.28,2.08 5.6,1.92 5.6,1.6 5.6,1.28 5.76,0.96 5.759998,0.64 L 39.52,8.96 45.279999,9.12 51.040001,8.96 56.959999,8.48 62.720001,7.84 68.480003,6.88 74.080002,5.6 79.68,4 85.279999,2.08 90.559998,0"
             style="fill:none;stroke:#000000;stroke-width:1.91999996;stroke-linecap:round;stroke-linejoin:bevel;stroke-miterlimit:10;stroke-dasharray:none;stroke-opacity:1"
             id="path5483" /></g></g><g
         id="g5485"
         transform="rotate(-90,942.6786,-35.989407)"><path
           d="m 0,0 5.44,2.08 5.44,1.76 5.6,1.28 5.6,0.96 5.76,0.64 5.759998,0.32 L 39.360001,6.88 45.119999,6.4 50.720001,5.6 56.32,4.48 l 5.599998,-1.6 5.440003,-1.92 5.279998,-2.08 5.120003,-2.56 4.959999,-2.88 4.799996,-3.2 4.640007,-3.52 4.319999,-3.840001 4.159997,-4 3.84,-4.32 3.52,-4.479999 3.2,-4.800001 3.04,-4.959999 2.56,-5.119999 2.24,-5.119999 2.08,-5.440003 1.6,-5.599998 1.28,-5.599999 0.8,-5.600006 0.64,-5.759994 0.16,-5.760002 -0.16,-5.760002 -0.64,-5.759995 -0.8,-5.600003 -1.28,-5.6 -1.6,-5.6 -2.08,-5.44 -2.24,-5.12 -2.56,-5.12 -3.04,-4.96 -3.2,-4.8 -3.52,-4.48 -3.84,-4.32 -4.159997,-4 -4.319999,-3.84 -4.640007,-3.52001 -4.799996,-3.19999 -4.959999,-2.87999 -5.120003,-2.56001 -5.279998,-2.08001 -5.440003,-1.91999 -5.599998,-1.6 -5.599999,-1.12001 -5.600002,-0.79998 -5.759998,-0.48001 -5.760003,-0.15999 -5.759998,0.31999 -5.76,0.64 -5.6,0.96 -5.6,1.28 -5.44,1.76 -5.44,2.08"
           style="fill:none;stroke:#000000;stroke-width:1.91999996;stroke-linecap:round;stroke-linejoin:bevel;stroke-miterlimit:10;stroke-dasharray:none;stroke-opacity:1"
           id="path5487" /></g><g
         id="g5489"
         transform="rotate(-90,693.0786,33.130583)"><path
           d="m 0,0 v 0.32 0.96 1.6 2.08 2.56 3.2 3.52 4 4.16 4.479999 4.800001 4.64"
           style="fill:none;stroke:#000000;stroke-width:1.91999996;stroke-linecap:round;stroke-linejoin:round;stroke-miterlimit:10;stroke-dasharray:none;stroke-opacity:1"
           id="path5491" /></g><g
         id="g5493"
         transform="rotate(-90,909.9586,-183.74941)"><path
           d="m 0,0 v 4.64 4.8 4.48 4.16 4 3.52 3.199999 2.560002 2.079998 1.600002 V 36 36.32"
           style="fill:none;stroke:#000000;stroke-width:1.91999996;stroke-linecap:round;stroke-linejoin:round;stroke-miterlimit:10;stroke-dasharray:none;stroke-opacity:1"
           id="path5495" /></g><g
         id="g5497"
         transform="rotate(-90,823.3186,535.21059)"><path
           d="M 632.32001,408.16 V 805.59998"
           style="fill:none;stroke:#000000;stroke-width:1.91999996;stroke-linecap:round;stroke-linejoin:round;stroke-miterlimit:10;stroke-dasharray:none;stroke-opacity:1"
           id="path5499" /></g><g
         id="g5501"
         transform="rotate(-90,679.3986,-16.869407)"><path
           d="m 0,0 v -4.64 -4.8 -4.48 -4.16 -4 -3.52 -3.199999 -2.560002 -2.079998 -1.600002 V -36 -36.32"
           style="fill:none;stroke:#000000;stroke-width:1.91999996;stroke-linecap:round;stroke-linejoin:round;stroke-miterlimit:10;stroke-dasharray:none;stroke-opacity:1"
           id="path5503" /></g><g
         id="g5505"
         transform="rotate(-90,896.2786,-233.7494)"><path
           d="m 0,0 v -0.32 -0.96 -1.6 -2.08 -2.56 -3.2 -3.52 -4 -4.16 -4.479999 -4.800001 -4.64 -397.44001"
           style="fill:none;stroke:#000000;stroke-width:1.91999996;stroke-linecap:round;stroke-linejoin:round;stroke-miterlimit:10;stroke-dasharray:none;stroke-opacity:1"
           id="path5507" /></g><g
         id="g5509"
         transform="rotate(-90,823.3186,535.21059)"><path
           d="M 632.32001,371.84 H 696 M 632.32001,841.91998 H 696"
           style="fill:none;stroke:#000000;stroke-width:1.91999996;stroke-linecap:round;stroke-linejoin:round;stroke-miterlimit:10;stroke-dasharray:none;stroke-opacity:1"
           id="path5511" /></g><g
         id="g5513"
         transform="rotate(-90,823.3186,535.21059)"><path
           d="m 632.47998,364.48001 v -74.88 M 696,364.48001 v -74.88 M 645.59998,297.12 h 37.11999"
           style="fill:none;stroke:#000000;stroke-width:0.95999998;stroke-linecap:round;stroke-linejoin:round;stroke-miterlimit:10;stroke-dasharray:none;stroke-opacity:1"
           id="path5515" /></g><g
         id="g5517"
         transform="rotate(-90,823.3186,535.21059)"><path
           d="m 645.59998,295.04001 v 4.31998 l -13.12,-2.23999 z"
           style="fill:#000000;fill-opacity:1;fill-rule:evenodd;stroke:none"
           id="path5519" /></g><g
         id="g5521"
         transform="rotate(-90,823.3186,535.21059)"><path
           d="m 682.71997,295.04001 v 4.31998 L 696,297.12 Z"
           style="fill:#000000;fill-opacity:1;fill-rule:evenodd;stroke:none"
           id="path5523" /></g><g
         id="g5525"
         transform="matrix(0,-0.063477,0.063477,0,288.10799,1358.5292)"><text
           transform="translate(10193.4,4590.0801)"
           style="font-variant:normal;font-weight:normal;font-size:327.67999268px;font-family:F1;-inkscape-font-specification:F1;writing-mode:lr-tb;fill:#000000;fill-opacity:1;fill-rule:nonzero;stroke:none"
           id="text5529"><tspan
             x="0 180.224 357.1712"
             y="0"
             id="tspan5527">2.1</tspan></text>
</g><g
         id="g5531"
         transform="rotate(-90,823.3186,535.21059)"><path
           d="m 703.52002,372 h 24.15997 m -24.15997,469.76001 h 24.15997 M 720.15997,385.28 v 443.19998"
           style="fill:none;stroke:#000000;stroke-width:0.95999998;stroke-linecap:round;stroke-linejoin:round;stroke-miterlimit:10;stroke-dasharray:none;stroke-opacity:1"
           id="path5533" /></g><g
         id="g5535"
         transform="rotate(-90,823.3186,535.21059)"><path
           d="m 722.40002,385.28 h -4.48004 L 720.15997,372 Z"
           style="fill:#000000;fill-opacity:1;fill-rule:evenodd;stroke:none"
           id="path5537" /></g><g
         id="g5539"
         transform="rotate(-90,823.3186,535.21059)"><path
           d="m 722.40002,828.47998 h -4.48004 l 2.23999,13.28003 z"
           style="fill:#000000;fill-opacity:1;fill-rule:evenodd;stroke:none"
           id="path5541" /></g><g
         id="g5543"
         transform="matrix(0.063477,0,0,0.063477,288.10799,1358.5292)"><text
           transform="translate(9104.4805,-11438.6)"
           style="font-variant:normal;font-weight:normal;font-size:327.67999268px;font-family:F1;-inkscape-font-specification:F1;writing-mode:lr-tb;fill:#000000;fill-opacity:1;fill-rule:nonzero;stroke:none"
           id="text5547"><tspan
             x="0 180.224 360.448 540.672 717.6192"
             y="0"
             id="tspan5545">15.54</tspan></text>
</g><g
         id="g5549"
         transform="rotate(-90,823.3186,535.21059)"><path
           d="M 532.64001,464.64001 507.51999,542.56"
           style="fill:none;stroke:#000000;stroke-width:0.95999998;stroke-linecap:round;stroke-linejoin:round;stroke-miterlimit:10;stroke-dasharray:none;stroke-opacity:1"
           id="path5551" /></g><g
         id="g5553"
         transform="matrix(0.060387,0.019504,-0.019504,0.060387,288.10799,1358.5292)"><text
           transform="translate(4450.7202,-10329.4)"
           style="font-variant:normal;font-weight:normal;font-size:327.67999268px;font-family:F1;-inkscape-font-specification:F1;writing-mode:lr-tb;fill:#000000;fill-opacity:1;fill-rule:nonzero;stroke:none"
           id="text5557"><tspan
             x="0 180.224 357.1712 537.3952"
             y="0"
             id="tspan5555">R1.8</tspan></text>
</g><g
         id="g5559"
         transform="rotate(-90,823.3186,535.21059)"><path
           d="m 486.72,606.88 16.79999,-51.84002"
           style="fill:none;stroke:#000000;stroke-width:0.95999998;stroke-linecap:round;stroke-linejoin:round;stroke-miterlimit:10;stroke-dasharray:none;stroke-opacity:1"
           id="path5561" /></g><g
         id="g5563"
         transform="rotate(-90,823.3186,535.21059)"><path
           d="m 509.60001,543.20001 -4.16001,-1.44 -1.92001,13.27997 z"
           style="fill:#000000;fill-opacity:1;fill-rule:evenodd;stroke:none"
           id="path5565" /></g><g
         id="g5567"
         transform="rotate(-90,823.3186,535.21059)"><path
           d="M 448.64001,463.67999 460,506.39999"
           style="fill:none;stroke:#000000;stroke-width:0.95999998;stroke-linecap:round;stroke-linejoin:round;stroke-miterlimit:10;stroke-dasharray:none;stroke-opacity:1"
           id="path5569" /></g><g
         id="g5571"
         transform="matrix(0.061327,-0.016318,0.016318,0.061327,288.10799,1358.5292)"><text
           transform="translate(8942.5596,-5045.7598)"
           style="font-variant:normal;font-weight:normal;font-size:327.67999268px;font-family:F1;-inkscape-font-specification:F1;writing-mode:lr-tb;fill:#000000;fill-opacity:1;fill-rule:nonzero;stroke:none"
           id="text5575"><tspan
             x="0 180.224"
             y="0"
             id="tspan5573">R3</tspan></text>
</g><g
         id="g5577"
         transform="rotate(-90,823.3186,535.21059)"><path
           d="M 486.72,606.88 463.35999,519.20001"
           style="fill:none;stroke:#000000;stroke-width:0.95999998;stroke-linecap:round;stroke-linejoin:round;stroke-miterlimit:10;stroke-dasharray:none;stroke-opacity:1"
           id="path5579" /></g><g
         id="g5581"
         transform="rotate(-90,823.3186,535.21059)"><path
           d="m 462.23999,505.92001 -4.31998,1.12 5.43998,12.16 z"
           style="fill:#000000;fill-opacity:1;fill-rule:evenodd;stroke:none"
           id="path5583" /></g><g
         id="g5585"
         transform="rotate(-90,823.3186,535.21059)"><path
           d="m 353.60001,523.20001 h -101.28 m 101.28,167.35999 h -101.28 M 260,536.32001 V 677.44"
           style="fill:none;stroke:#000000;stroke-width:0.95999998;stroke-linecap:round;stroke-linejoin:round;stroke-miterlimit:10;stroke-dasharray:none;stroke-opacity:1"
           id="path5587" /></g><g
         id="g5589"
         transform="rotate(-90,823.3186,535.21059)"><path
           d="m 262.07999,536.32001 h -4.31998 L 260,523.20001 Z"
           style="fill:#000000;fill-opacity:1;fill-rule:evenodd;stroke:none"
           id="path5591" /></g><g
         id="g5593"
         transform="rotate(-90,823.3186,535.21059)"><path
           d="m 262.07999,677.44 h -4.31998 L 260,690.56 Z"
           style="fill:#000000;fill-opacity:1;fill-rule:evenodd;stroke:none"
           id="path5595" /></g><g
         id="g5597"
         transform="matrix(0.063477,0,0,0.063477,288.10799,1358.5292)"><text
           transform="translate(9192.6396,-4186.7202)"
           style="font-variant:normal;font-weight:normal;font-size:327.67999268px;font-family:F1;-inkscape-font-specification:F1;writing-mode:lr-tb;fill:#000000;fill-opacity:1;fill-rule:nonzero;stroke:none"
           id="text5601"><tspan
             x="0 180.224 357.1712 537.3952"
             y="0"
             id="tspan5599">5.54</tspan></text>
</g><g
         id="g5603"
         transform="rotate(-90,823.3186,535.21059)"><path
           d="M 361.12,400.64001 V 349.28 m -72.47999,51.36001 V 349.28 M 348,356.79999 h -46.07999"
           style="fill:none;stroke:#000000;stroke-width:0.95999998;stroke-linecap:round;stroke-linejoin:round;stroke-miterlimit:10;stroke-dasharray:none;stroke-opacity:1"
           id="path5605" /></g><g
         id="g5607"
         transform="rotate(-90,823.3186,535.21059)"><path
           d="m 348,354.56 v 4.48001 l 13.12,-2.24002 z"
           style="fill:#000000;fill-opacity:1;fill-rule:evenodd;stroke:none"
           id="path5609" /></g><g
         id="g5611"
         transform="rotate(-90,823.3186,535.21059)"><path
           d="m 301.92001,354.56 v 4.48001 l -13.28,-2.24002 z"
           style="fill:#000000;fill-opacity:1;fill-rule:evenodd;stroke:none"
           id="path5613" /></g><g
         id="g5615"
         transform="matrix(0,-0.063477,0.063477,0,288.10799,1358.5292)"><text
           transform="translate(4842.0801,5530.2402)"
           style="font-variant:normal;font-weight:normal;font-size:327.67999268px;font-family:F1;-inkscape-font-specification:F1;writing-mode:lr-tb;fill:#000000;fill-opacity:1;fill-rule:nonzero;stroke:none"
           id="text5619"><tspan
             x="0 180.224 357.1712"
             y="0"
             id="tspan5617">2.4</tspan></text>
</g></g><g
       id="g10951"><g
         id="g5311"
         transform="matrix(0,-2.8166237,2.8166237,0,108.3053,601.71017)"><g
           id="g5313"
           clip-path="url(#clipPath5317)"><path
             d="m 0,0 2.72,-2.24 2.72,-2.4 2.56,-2.88 2.4,-3.04 2.4,-3.36 2.08,-3.68 2.079999,-3.840001 1.92,-4.159999 1.600001,-4.32 1.6,-4.480002 1.44,-4.639999 L 24.639999,-44 25.6,-48.959999 l 0.8,-4.959999"
             style="fill:none;stroke:#000000;stroke-width:1.91999996;stroke-linecap:round;stroke-linejoin:bevel;stroke-miterlimit:10;stroke-dasharray:none;stroke-opacity:1"
             id="path5319" /></g></g><g
         id="g5321"
         transform="matrix(0,-2.8166237,2.8166237,0,-3374.8441,2787.41)"><path
           d="m 768.96002,1277.12 0.47998,-1.12 0.32001,-1.28 0.47998,-1.2801 0.32001,-1.2799"
           style="fill:none;stroke:#000000;stroke-width:1.91999996;stroke-linecap:round;stroke-linejoin:bevel;stroke-miterlimit:10;stroke-dasharray:none;stroke-opacity:1"
           id="path5323" /></g><g
         id="g5325"
         transform="matrix(0,-2.8166237,2.8166237,0,108.3053,601.71017)"><path
           d="M 0,0 -1.76,1.28 -3.2,3.04 -4.64,4.96 -5.92,7.2 -7.04,9.76 -8,12.48 -8.64,15.2 -9.28,18.24 -9.6,21.280001 -9.76,24.48 v 3.2 l 0.32,3.039999 0.48,3.039999 0.64,2.880001 0.96,2.720002 0.96,2.720001 L -5.12,44.32 -3.84,46.400002 -2.4,48.32 -0.8,49.759998 0.96,50.880001 2.72,51.68 4.48,52.16 6.24,52.32 8.16,52 9.92,51.360001 11.68,50.400002 13.28,49.119999 14.88,47.52 16.16,45.599998 17.6,43.360001 18.719999,40.959999 19.68,38.240002 20.48,35.52"
           style="fill:none;stroke:#000000;stroke-width:1.91999996;stroke-linecap:round;stroke-linejoin:bevel;stroke-miterlimit:10;stroke-dasharray:none;stroke-opacity:1"
           id="path5327" /></g><g
         id="g5329"
         transform="matrix(0,-2.8166237,2.8166237,0,-3374.8441,2787.41)"><g
           id="g5331"
           clip-path="url(#clipPath5335)"><g
             id="g5337"
             transform="translate(801.59998,1226.24)"><path
               d="m 0,0 -2.88,1.44 -2.88,1.76 -2.72,1.92 -2.72,2.4 -2.56,2.72 -2.56,2.88 -2.399999,3.36 -2.24,3.52 -2.080002,3.68 -1.919998,4 -1.76,4.32 -1.600001,4.48 -1.44,4.639999 -1.280001,4.639999"
               style="fill:none;stroke:#000000;stroke-width:1.91999996;stroke-linecap:round;stroke-linejoin:bevel;stroke-miterlimit:10;stroke-dasharray:none;stroke-opacity:1"
               id="path5339" /></g><g
             id="g5341"
             transform="translate(827.52002,1226.24)"><path
               d="m 0,0 -2.88,1.44 -2.88,1.76 -2.72,1.92 -2.72,2.4 -2.56,2.72 -2.56,2.88 -2.399999,3.36 -2.24,3.52 -2.080002,3.68 -1.919998,4 -1.76,4.32 -1.600001,4.48 -1.44,4.639999 -1.280001,4.639999"
               style="fill:none;stroke:#000000;stroke-width:1.91999996;stroke-linecap:round;stroke-linejoin:bevel;stroke-miterlimit:10;stroke-dasharray:none;stroke-opacity:1"
               id="path5343" /></g></g></g><g
         id="g5345"
         transform="matrix(0,-2.8166237,2.8166237,0,-3374.8441,2787.41)"><path
           d="m 827.67999,1226.4 h -26.08001 l -7.68,-13.44"
           style="fill:none;stroke:#000000;stroke-width:1.91999996;stroke-linecap:round;stroke-linejoin:round;stroke-miterlimit:10;stroke-dasharray:none;stroke-opacity:1"
           id="path5347" /></g><g
         id="g5349"
         transform="matrix(0,-2.8166237,2.8166237,0,-3374.8441,2787.41)"><path
           d="M 802.40002,1182.5601 827.67999,1226.4"
           style="fill:none;stroke:#000000;stroke-width:1.91999996;stroke-linecap:round;stroke-linejoin:round;stroke-miterlimit:10;stroke-dasharray:none;stroke-opacity:1"
           id="path5351" /></g><g
         id="g5353"
         transform="matrix(0,-2.8166237,2.8166237,0,-3374.8441,2787.41)"><path
           d="m 822.23999,1287.52 0.96002,1.6 1.12,1.28 1.27997,0.96 1.28002,0.8 1.44001,0.48 1.27997,0.16"
           style="fill:none;stroke:#000000;stroke-width:1.91999996;stroke-linecap:round;stroke-linejoin:bevel;stroke-miterlimit:10;stroke-dasharray:none;stroke-opacity:1"
           id="path5355" /></g><g
         id="g5357"
         transform="matrix(0,-2.8166237,2.8166237,0,-3374.8441,2787.41)"><path
           d="m 810.08002,1266.72 12.15997,20.8"
           style="fill:none;stroke:#000000;stroke-width:1.91999996;stroke-linecap:round;stroke-linejoin:round;stroke-miterlimit:10;stroke-dasharray:none;stroke-opacity:1"
           id="path5359" /></g><g
         id="g5361"
         transform="matrix(0,-2.8166237,2.8166237,0,-3374.8441,2787.41)"><g
           id="g5363"
           clip-path="url(#clipPath5367)"><g
             id="g5369"
             transform="translate(746.08002,1219.84)"><path
               d="M 0,0 -2.24,1.76 -4.32,3.84 -6.24,6.24 -8,8.96 -9.6,12 l -1.6,3.2 -1.28,3.519999 -1.12,3.680001 -0.96,3.84 -0.64,3.84 -0.64,4.160002 -0.16,4 -0.16,4.16 0.16,4.159999 0.32,4.16 0.64,4 0.8,4 0.96,3.680001 1.12,3.68 1.44,3.36 1.44,3.199997 1.76,2.879998 1.76,2.720001 2.08,2.240005 2.08,2.079995 2.24,1.600006 2.24,1.279998 2.24,0.96 2.4,0.639999 2.4,0.159996"
               style="fill:none;stroke:#000000;stroke-width:1.91999996;stroke-linecap:round;stroke-linejoin:bevel;stroke-miterlimit:10;stroke-dasharray:none;stroke-opacity:1"
               id="path5371" /></g><g
             id="g5373"
             transform="translate(746.08002,1219.6801)"><path
               d="M 0,0 1.92,-1.6 4,-3.36 l 1.92,-2.08 1.76,-2.24 1.76,-2.4 1.6,-2.72 1.44,-2.72 1.44,-3.039999 L 15.2,-21.76 16.48,-24.959999 17.440001,-28.48 18.4,-32"
               style="fill:none;stroke:#000000;stroke-width:1.91999996;stroke-linecap:round;stroke-linejoin:bevel;stroke-miterlimit:10;stroke-dasharray:none;stroke-opacity:1"
               id="path5375" /></g></g></g><g
         id="g5377"
         transform="matrix(0,-2.8166237,2.8166237,0,-3374.8441,2787.41)"><path
           d="M 764.47998,1187.6801 741.12,1147.04"
           style="fill:none;stroke:#000000;stroke-width:1.91999996;stroke-linecap:round;stroke-linejoin:round;stroke-miterlimit:10;stroke-dasharray:none;stroke-opacity:1"
           id="path5379" /></g><g
         id="g5381"
         transform="matrix(0,-2.8166237,2.8166237,0,-231.0415,679.22368)"><path
           d="M 0,0 -1.28,0.16 -2.72,0.64 -4,1.44 -5.12,2.4 -6.4,3.68 l -0.96,1.6 -0.96,1.76 -0.64,1.92 -0.64,2.24 -0.48,2.24 -0.16,2.24 -0.16,2.4 0.16,2.4 0.16,2.239999 0.48,2.24 0.64,2.080002 0.64,2.08 0.96,1.759998"
           style="fill:none;stroke:#000000;stroke-width:1.91999996;stroke-linecap:round;stroke-linejoin:bevel;stroke-miterlimit:10;stroke-dasharray:none;stroke-opacity:1"
           id="path5383" /></g><g
         id="g5385"
         transform="matrix(0,-2.8166237,2.8166237,0,251.61514,398.46269)"><path
           d="M 0,0 1.12,1.6 2.4,3.04 3.68,4.16 5.12,4.8 6.56,5.28 h 1.6 L 9.6,4.8 11.04,4.16 12.32,3.04 13.6,1.6 14.72,0 l 0.96,-1.92 0.8,-2.24 0.640001,-2.4 0.479999,-2.4 0.16,-2.56 v -2.56 l -0.16,-2.559999 -0.479999,-2.400002 -0.640001,-2.4 -0.8,-2.239999 -0.96,-1.92"
           style="fill:none;stroke:#000000;stroke-width:1.91999996;stroke-linecap:round;stroke-linejoin:bevel;stroke-miterlimit:10;stroke-dasharray:none;stroke-opacity:1"
           id="path5387" /></g><g
         id="g5389"
         transform="matrix(0,-2.8166237,2.8166237,0,-216.17,585.48639)"><path
           d="M 0,0 -1.12,-1.6 -2.4,-3.04 -3.68,-4.16 -5.12,-4.8 -6.56,-5.28 h -1.6 l -1.44,0.48 -1.44,0.64 -1.28,1.12 -1.28,1.44 -1.12,1.6 -0.96,1.92 -0.8,2.24 -0.640001,2.4 -0.479999,2.4 -0.16,2.56 v 2.56 l 0.16,2.559999 0.479999,2.400002 0.640001,2.4 0.8,2.239999 0.96,1.92"
           style="fill:none;stroke:#000000;stroke-width:1.91999996;stroke-linecap:round;stroke-linejoin:bevel;stroke-miterlimit:10;stroke-dasharray:none;stroke-opacity:1"
           id="path5391" /></g><g
         id="g5393"
         transform="matrix(0,-2.8166237,2.8166237,0,-3374.8441,2787.41)"><path
           d="m 863.03998,1261.92 -81.12,-140.4801"
           style="fill:none;stroke:#000000;stroke-width:1.91999996;stroke-linecap:round;stroke-linejoin:round;stroke-miterlimit:10;stroke-dasharray:none;stroke-opacity:1"
           id="path5395" /></g><g
         id="g5397"
         transform="matrix(0,-2.8166237,2.8166237,0,60.535641,612.97666)"><g
           id="g5399"
           clip-path="url(#clipPath5403)"><path
             d="M 0,0 1.92,-1.6 4,-3.36 l 1.92,-2.08 1.76,-2.24 1.76,-2.4 1.6,-2.72 1.44,-2.72 1.44,-3.039999 L 15.2,-21.76 16.48,-24.959999 17.440001,-28.48 18.4,-32"
             style="fill:none;stroke:#000000;stroke-width:1.91999996;stroke-linecap:round;stroke-linejoin:bevel;stroke-miterlimit:10;stroke-dasharray:none;stroke-opacity:1"
             id="path5405" /></g></g><g
         id="g5407"
         transform="matrix(0,-2.8166237,2.8166237,0,-3374.8441,2787.41)"><path
           d="M 764.47998,1187.6801 H 790.56 L 767.03998,1147.04"
           style="fill:none;stroke:#000000;stroke-width:1.91999996;stroke-linecap:round;stroke-linejoin:round;stroke-miterlimit:10;stroke-dasharray:none;stroke-opacity:1"
           id="path5409" /></g><g
         id="g5411"
         transform="matrix(0,-2.8166237,2.8166237,0,-3374.8441,2787.41)"><path
           d="m 824.64001,1246.88 23.51996,40.64"
           style="fill:none;stroke:#000000;stroke-width:1.91999996;stroke-linecap:round;stroke-linejoin:round;stroke-miterlimit:10;stroke-dasharray:none;stroke-opacity:1"
           id="path5413" /></g><g
         id="g5415"
         transform="matrix(0,-2.8166237,2.8166237,0,137.59821,464.70957)"><g
           id="g5417"
           clip-path="url(#clipPath5421)"><path
             d="M 0,0 -1.92,1.6 -4,3.36 l -1.92,2.08 -1.76,2.24 -1.76,2.4 -1.6,2.72 -1.44,2.72 -1.44,3.039999 L -15.2,21.76 -16.48,24.959999 -17.440001,28.48 -18.4,32"
             style="fill:none;stroke:#000000;stroke-width:1.91999996;stroke-linecap:round;stroke-linejoin:bevel;stroke-miterlimit:10;stroke-dasharray:none;stroke-opacity:1"
             id="path5423" /></g></g><g
         id="g5425"
         transform="matrix(0,-2.8166237,2.8166237,0,60.986019,612.97666)"><path
           d="m 0,0 -2.08,1.76 -2.08,2.08 -1.92,2.24 -1.76,2.72 -1.6,2.88 -1.44,3.04 -1.44,3.36 -1.12,3.52 -0.96,3.680001 -0.64,3.84 -0.64,3.839998 -0.32,4 -0.16,4.16 v 4 l 0.32,4 0.48,4 0.64,3.84 0.96,3.68 0.96,3.680001 1.28,3.36 1.44,3.199997 1.6,3.040001 1.6,2.720001 1.92,2.400002 1.92,2.239998 2.08,1.760002 2.24,1.599998 2.24,1.120003 2.24,0.799996 2.24,0.480003 2.4,0.159996 2.4,-0.32 2.24,-0.479995 2.240001,-1.120003 L 19.52,84 l 2.08,-1.599998 2.08,-1.919999 1.92,-2.400001 1.760001,-2.560005 1.599998,-2.879998 1.6,-3.040001 1.280001,-3.199996 1.279999,-3.520001 0.960003,-3.68"
           style="fill:none;stroke:#000000;stroke-width:1.91999996;stroke-linecap:round;stroke-linejoin:bevel;stroke-miterlimit:10;stroke-dasharray:none;stroke-opacity:1"
           id="path5427" /></g><g
         id="g5429"
         transform="matrix(0,-2.8166237,2.8166237,0,-3374.8441,2787.41)"><path
           d="m 829.59998,1292.96 h 25.92004 M 748.47998,1116 h 25.92004 M 756,1307.2 h 25.91998"
           style="fill:none;stroke:#000000;stroke-width:1.91999996;stroke-linecap:round;stroke-linejoin:round;stroke-miterlimit:10;stroke-dasharray:none;stroke-opacity:1"
           id="path5431" /></g><path
         style="opacity:1;fill:#fff6d5;fill-opacity:1;stroke:none;stroke-width:0.84076267;stroke-linecap:butt;stroke-linejoin:bevel;stroke-miterlimit:4;stroke-dasharray:none;stroke-dashoffset:0;stroke-opacity:1;paint-order:fill markers stroke"
         d="M 447.05409,5.2877819 C 432.82986,5.1912956 419.07227,10.100612 407.30025,17.899786 278.02378,91.968135 148.82915,166.1883 20.050741,241.1181 13.415582,246.10174 4.1156762,252.90419 5.8572911,262.46593 8.3391612,274.8983 21.52948,280.91555 32.456264,284.32248 c 12.640535,3.8966 26.228809,3.09165 39.141446,1.26607 17.09447,-4.98112 31.8713,-15.53195 47.42967,-23.86476 28.4156,-16.22911 56.52185,-33.13029 85.31396,-48.62475 30.63666,7.38431 61.78449,20.02035 84.06692,43.10441 11.66891,13.34517 23.44675,27.56261 40.02554,34.95361 17.52953,9.65804 37.07167,14.68461 56.80752,17.24476 25.53469,3.49235 51.80644,2.10966 76.89559,-3.75818 23.94306,-6.23049 48.31121,-16.52799 64.62542,-35.83423 11.26049,-12.96817 15.07579,-32.54263 6.85419,-48.05977 -10.19518,-20.90084 -31.88601,-32.66002 -52.55259,-41.07421 -21.18695,-7.74877 -43.79228,-11.58651 -63.86126,-22.31222 -18.78329,-8.63038 -36.1644,-21.21299 -47.88958,-38.3869 1.50963,-3.83583 6.99624,-4.85173 10.12478,-7.37672 37.03901,-21.926291 74.87258,-42.570726 111.25706,-65.569301 3.83112,-4.053581 8.28616,-9.320436 7.80826,-15.228972 C 494.67361,15.795323 478.60515,8.7406706 464.6169,6.4934149 458.82342,5.495973 452.92719,5.1616107 447.05409,5.2877819 Z M 314.10191,108.07923 c 5.05261,7.54932 8.31279,16.29789 14.31924,23.28355 25.53061,32.4383 64.64977,50.72123 103.60102,61.55911 17.02163,4.99527 35.45621,9.0732 48.4391,22.15096 9.48862,8.69469 14.8066,23.17712 9.20733,35.39907 -5.12677,12.87639 -17.72504,20.98473 -29.95477,26.36208 -15.43245,6.20095 -31.88023,9.10627 -48.48408,8.59867 -17.81354,0.34193 -35.97095,-3.79986 -51.74964,-12.07624 -15.21079,-7.70492 -23.22299,-23.47968 -35.77018,-34.31198 -28.43266,-25.85484 -65.21799,-40.49711 -102.14972,-49.34924 -10.88021,-2.83258 -22.39828,-3.34661 -33.05543,-6.80452 -2.52484,-2.58242 2.97244,-4.03501 4.36281,-5.30201 40.16555,-23.57276 80.47083,-47.05232 121.23432,-69.50945 z"
         id="path10096"
         transform="translate(-234.19628,345.73549)" /><path
         style="opacity:1;fill:#ffcc00;fill-opacity:1;stroke:none;stroke-width:0.84076267;stroke-linecap:butt;stroke-linejoin:bevel;stroke-miterlimit:4;stroke-dasharray:none;stroke-dashoffset:0;stroke-opacity:1;paint-order:fill markers stroke"
         d="m 309.2741,115.96467 c -35.77177,20.46189 -71.84771,40.45988 -106.89017,62.15404 -2.16677,0.64945 -2.59996,3.50986 0.29252,3.08128 24.24325,3.96084 47.74802,11.09246 70.57787,20.18912 4.51851,2.20143 8.38351,-3.13705 12.44901,-4.3772 8.33931,-4.89619 17.26282,-9.28082 25.08973,-14.73044 -0.11891,-22.04974 0.88261,-44.20374 -0.20691,-66.19529 -0.41476,0.23811 -0.92014,-0.64144 -1.31205,-0.12151 z"
         id="path10098"
         transform="translate(-234.19628,345.73549)" /><path
         style="opacity:1;fill:#ffcc00;fill-opacity:1;stroke:none;stroke-width:0.84076267;stroke-linecap:butt;stroke-linejoin:bevel;stroke-miterlimit:4;stroke-dasharray:none;stroke-dashoffset:0;stroke-opacity:1;paint-order:fill markers stroke"
         d="m 200.15065,220.34733 c -38.4052,21.95187 -76.37741,44.77485 -115.228822,65.86029 -14.500589,6.50799 -30.957086,6.27933 -46.445572,4.6127 -11.557168,-2.10122 -22.438899,-7.19106 -31.3892499,-14.91009 -4.028238,-0.18864 -0.6982509,9.21799 -1.7162429,12.76343 0.5883022,16.44886 -0.6950143,33.04959 1.333859,49.40672 3.5557338,11.08217 15.5689838,16.3395 25.8961478,19.41308 16.369965,4.37331 34.334631,3.5109 50.138687,-2.59454 36.993153,-19.69429 72.892213,-41.39443 109.373493,-62.01961 3.81349,-3.01305 11.61757,-3.8843 9.80134,-10.27285 -0.30101,-20.66048 0.66114,-41.46572 -0.75374,-62.04401 -0.24065,-0.32454 -0.67431,-0.40595 -1.0099,-0.21512 z"
         id="path10100"
         transform="translate(-234.19628,345.73549)" /><path
         style="opacity:1;fill:#ffcc00;fill-opacity:1;stroke:none;stroke-width:0.84076267;stroke-linecap:butt;stroke-linejoin:bevel;stroke-miterlimit:4;stroke-dasharray:none;stroke-dashoffset:0;stroke-opacity:1;paint-order:fill markers stroke"
         d="m 497.56882,46.660861 c -15.89986,12.687729 -34.56564,21.438144 -51.87304,32.08327 -23.1379,13.496815 -46.52483,26.607239 -69.34622,40.621359 -0.0832,3.47606 4.39415,5.67223 6.27616,8.35343 12.47782,12.71754 27.8941,22.60275 44.60148,28.69103 11.59742,-5.1343 22.31745,-12.50801 33.45029,-18.69794 10.22727,-6.3688 21.08355,-11.91537 30.72847,-19.12981 4.20411,-4.64532 8.31546,-10.1561 6.93417,-16.8068 -0.0519,-18.353377 0.72462,-36.896609 0.15813,-55.132603 l -0.67327,-0.11659 z"
         id="path10102"
         transform="translate(-234.19628,345.73549)" /><path
         style="opacity:1;fill:#ffe680;fill-opacity:1;stroke:none;stroke-width:0.84076267;stroke-linecap:butt;stroke-linejoin:bevel;stroke-miterlimit:4;stroke-dasharray:none;stroke-dashoffset:0;stroke-opacity:1;paint-order:fill markers stroke"
         d="m 315.75881,123.21132 c -0.34371,19.964 -0.16387,40.08103 -0.0903,60.07841 14.21329,30.73097 42.59995,52.483 72.51589,66.76887 21.83055,9.96553 45.0331,16.58068 68.17557,22.63277 8.10824,-2.44965 15.45251,-7.58104 21.76458,-13.16811 8.21264,-8.34177 12.27335,-22.07374 5.58319,-32.53687 -8.8005,-14.65731 -25.4437,-22.19706 -41.42458,-26.19156 -37.03777,-9.85341 -74.53924,-23.68912 -102.77115,-50.59371 -8.82007,-8.07472 -16.57461,-17.38805 -23.12754,-27.26568 z"
         id="path10104"
         transform="translate(-234.19628,345.73549)" /><path
         style="opacity:1;fill:#ffe680;fill-opacity:1;stroke:none;stroke-width:0.84076267;stroke-linecap:butt;stroke-linejoin:bevel;stroke-miterlimit:4;stroke-dasharray:none;stroke-dashoffset:0;stroke-opacity:1;paint-order:fill markers stroke"
         d="m 208.08207,219.27667 c -1.50894,8.73895 -0.53086,18.11156 -0.93929,27.0719 -0.0274,13.25239 -0.007,26.50483 -0.0131,39.75724 7.11062,3.28114 15.6527,4.35877 23.09696,7.51599 24.32188,9.19664 48.44956,22.22216 64.7829,43.09386 9.70111,11.44285 20.77834,22.12066 34.79684,28.04687 37.75619,19.08665 82.08444,22.27899 123.25858,14.68719 28.18072,-5.7639 57.82146,-16.62759 75.61283,-40.49223 6.74343,-8.91355 10.46778,-19.90963 9.82799,-31.13058 0.18998,-15.61506 0.87802,-31.41676 0.39839,-46.91771 -3.57629,2.13665 -5.24047,7.69466 -8.48149,10.92745 -13.78594,16.68679 -33.98181,27.04625 -54.27189,33.73727 -26.32048,8.4126 -54.1665,10.90458 -81.62515,8.51114 -30.15409,-2.36131 -60.63139,-11.09509 -85.0418,-29.35855 -17.71086,-15.56703 -31.35025,-36.25281 -52.98234,-46.9974 -15.11146,-8.08333 -31.12948,-14.76563 -47.87257,-18.58053 z"
         id="path10106"
         transform="translate(-234.19628,345.73549)" /></g><path
       id="path10114"
       d="m -2.575234,905.23188 c -21.58252,-0.14899 -41.38753,15.50641 -47.7808,35.86222 -3.07059,9.212 -3.96048,19.1409 -3.78551,28.7248 5.11146,6.1614 12.66477,9.8962 20.68978,10.0238 9.34242,0.4384 20.69458,-0.8721 26.66704,-8.959 2.9197,-5.1889 0.0579,-12.3578 4.20121,-16.9609 2.23105,-0.8212 5.85524,2.3056 6.95091,-0.4461 -2.87078,-9.3568 0.65411,-19.6229 6.0636,-27.37783 3.98487,-5.48589 9.12855,-10.48619 15.66612,-12.61234 1.39241,-2.44882 -3.32369,-2.89753 -4.78881,-3.85076 -7.60897,-2.87631 -15.72941,-4.54583 -23.88354,-4.40389 z"
       style="opacity:1;fill:#b3b3b3;fill-opacity:1;stroke:none;stroke-width:0.70710671;stroke-linecap:butt;stroke-linejoin:bevel;stroke-miterlimit:4;stroke-dasharray:none;stroke-dashoffset:0;stroke-opacity:1;paint-order:fill markers stroke" /><path
       id="path10116"
       d="m -2.245154,1012.4759 c -14.99883,5.9455 -31.81707,6.2978 -47.34715,2.8381 -2.55756,1.5298 0.34123,5.1329 0.44194,7.281 8.14411,27.4555 25.04573,52.2914 47.29665,70.2681 1.36496,0.6192 4.31481,4.6215 5.19084,1.7878 0.0293,-8.4689 0.97402,-17.3205 5.93306,-24.4877 4.11143,-6.4705 10.46208,-12.1734 17.86688,-14.3452 0.36568,-3.0488 -3.72911,-4.9108 -5.23256,-7.2235 -10.24439,-10.058 -18.31181,-22.1831 -23.20225,-35.6849 l -0.50409,-0.4475 z"
       style="opacity:1;fill:#b3b3b3;fill-opacity:1;stroke:none;stroke-width:0.70710671;stroke-linecap:butt;stroke-linejoin:bevel;stroke-miterlimit:4;stroke-dasharray:none;stroke-dashoffset:0;stroke-opacity:1;paint-order:fill markers stroke" /><path
       id="path10118"
       d="m 28.623096,1056.8731 c -9.57389,1.7022 -16.59701,10.0623 -20.7975,18.3365 -2.98819,7.095 -5.51343,16.5781 -0.46128,23.3207 5.11648,4.6056 13.2746,1.4104 17.55475,-2.9058 6.03017,-5.931 11.34819,-13.54 12.48724,-22.0733 -0.25549,-3.989 0.97917,-8.6302 -0.67799,-12.1443 -2.28366,-2.043 -4.68401,-4.9135 -8.10522,-4.5338 z"
       style="opacity:1;fill:#b3b3b3;fill-opacity:1;stroke:none;stroke-width:0.70710671;stroke-linecap:butt;stroke-linejoin:bevel;stroke-miterlimit:4;stroke-dasharray:none;stroke-dashoffset:0;stroke-opacity:1;paint-order:fill markers stroke" /><path
       id="path10120"
       d="m 27.956036,914.73778 c -10.70057,1.47981 -17.1587,11.83471 -21.3955,20.80302 -2.6787,5.5901 -1.55488,12.1673 -1.44598,18.0602 2.90033,3.334 7.27057,6.5702 11.86337,4.3725 10.71881,-4.4344 17.79789,-15.3484 20.37076,-26.35493 1.4782,-6.97236 0.28604,-17.92601 -9.39265,-16.88079 z"
       style="opacity:1;fill:#b3b3b3;fill-opacity:1;stroke:none;stroke-width:0.70710671;stroke-linecap:butt;stroke-linejoin:bevel;stroke-miterlimit:4;stroke-dasharray:none;stroke-dashoffset:0;stroke-opacity:1;paint-order:fill markers stroke" /><path
       id="path10128"
       d="m 13.889136,972.8487 c -1.3673,2.3053 -3.02538,4.4243 -5.02225,6.2065 -3.45766,3.3448 -7.77983,5.7244 -12.17467,7.5477 -7.63308,3.2016 -15.93936,4.6442 -24.16702,4.897 -4.77048,0.2173 -9.56087,-0.1062 -14.26638,-0.832 -8.12863,-1.1332 -16.13911,-3.9316 -22.99885,-8.4717 -2.33566,-1.5458 -4.31954,-3.5238 -6.28754,-5.4866 -1.15124,-0.5912 -1.29361,1.0703 -1.14384,1.8357 0.0395,7.179 -0.079,14.3852 0.0593,21.5472 1.24317,1.8348 2.71109,3.6211 4.39331,5.1053 3.92574,3.3692 8.62282,5.6789 13.39083,7.6011 7.94828,2.7865 16.37289,4.2135 24.7995,4.0925 8.62305,0.012 17.28831,-1.4986 25.33,-4.6326 4.95466,-2.0634 9.86768,-4.6196 13.56306,-8.6007 3.36172,-3.5376 5.95555,-8.2196 5.68139,-13.2335 0.0102,-5.701 0.0937,-11.4319 -0.0421,-17.114 -0.0634,-0.5287 -0.69508,-0.6883 -1.1147,-0.4619 z"
       style="opacity:1;fill:#ffe680;fill-opacity:1;stroke:none;stroke-width:0.17677669;stroke-linecap:butt;stroke-linejoin:bevel;stroke-miterlimit:4;stroke-dasharray:none;stroke-dashoffset:0;stroke-opacity:1;paint-order:fill markers stroke" /><path
       id="path10130"
       d="m -1.519784,954.7367 c -1.48537,0.1472 -1.72445,1.9871 -2.1646,3.1154 -0.3465,0.9596 -0.63571,2.0431 0.17448,2.8643 1.28556,2.7123 1.40775,6.1042 0.076,8.8239 -2.7298,5.0391 -8.07345,8.0029 -13.34276,9.7396 -5.99656,1.7757 -12.32619,2.4459 -18.53065,1.5499 -4.25427,-0.4421 -8.42091,-1.6646 -12.3291,-3.3826 -4.05124,-1.9554 -7.21358,-5.2481 -9.9391,-8.768 -3.61724,-4.2281 -8.03339,-7.7426 -12.78218,-10.6117 -1.26788,-0.4385 -1.49764,1.3319 -1.97389,2.093 -1.29286,3.0931 -2.7605,6.1483 -3.68054,9.375 -0.1304,1.2511 1.32728,1.7714 1.88619,2.7079 4.11735,4.7282 8.51526,9.494 14.31995,12.1445 6.39217,3.3786 13.47136,5.2546 20.63135,6.065 9.77131,1.2873 19.78094,0.3832 29.2888,-2.1256 4.82144,-1.3201 9.40686,-3.458 13.68528,-6.0248 3.12249,-2.0637 5.90169,-4.6773 8.19765,-7.6274 2.83834,-4.2744 4.16499,-10.032 1.99755,-14.8566 -0.82323,-0.7828 -2.2252,-0.3851 -3.25983,-0.8223 -1.69326,-0.3205 -3.12815,-1.2572 -4.63037,-2.0236 -2.4404,-0.9635 -4.97981,-2.0612 -7.62419,-2.2359 z"
       style="opacity:1;fill:#fff6d5;fill-opacity:1;stroke:none;stroke-width:0.17677669;stroke-linecap:butt;stroke-linejoin:bevel;stroke-miterlimit:4;stroke-dasharray:none;stroke-dashoffset:0;stroke-opacity:1;paint-order:fill markers stroke" /><path
       id="path10132"
       d="m -53.654404,936.0698 c -3.59791,3.212 -7.30235,6.4348 -10.03691,10.4426 -0.66264,1.4767 0.79228,2.7604 1.32355,4.0295 1.65046,2.7393 3.76015,5.2443 6.22191,7.2804 1.03094,0.6487 1.77922,-0.6589 1.57235,-1.5702 0.67974,-6.0355 2.0739,-11.9901 4.14838,-17.7219 0.12386,-1.3246 -1.52251,-1.7016 -2.26046,-2.4956 -0.35749,-0.1726 -0.63172,-0.1921 -0.96882,0.035 z"
       style="opacity:1;fill:#ffe680;fill-opacity:1;stroke:none;stroke-width:0.17677669;stroke-linecap:butt;stroke-linejoin:bevel;stroke-miterlimit:4;stroke-dasharray:none;stroke-dashoffset:0;stroke-opacity:1;paint-order:fill markers stroke" /><path
       id="path10134"
       d="m -49.268754,932.8443 c -0.85361,0.4505 -1.61805,1.0634 -2.40662,1.6194 -0.5384,0.3392 -0.64368,1.1703 -0.12866,1.5781 0.49203,0.3491 0.92436,0.8308 1.51269,1.0088 0.6726,0.053 0.91125,-0.6609 1.09693,-1.1692 0.20188,-0.8302 0.89835,-1.4962 0.91406,-2.3732 -0.0452,-0.4666 -0.53876,-0.7956 -0.9884,-0.6639 z"
       style="opacity:1;fill:#fff6d5;fill-opacity:1;stroke:none;stroke-width:0.0625;stroke-linecap:butt;stroke-linejoin:bevel;stroke-miterlimit:4;stroke-dasharray:none;stroke-dashoffset:0;stroke-opacity:1;paint-order:fill markers stroke" /><path
       id="path10126"
       d="m -76.432274,971.3642 c -0.56204,0.3584 -0.47971,1.1102 -0.68013,1.6727 -0.45386,2.0114 -0.94655,4.0175 -1.35123,6.0377 -0.36564,3.6796 -0.59813,7.3907 -0.31539,11.0845 0.13079,1.4321 0.40469,2.8578 0.78715,4.2388 0.30738,0.5482 0.90168,0.8775 1.32845,1.3341 1.30855,1.1571 2.53526,2.4022 3.69953,3.7028 0.48678,0.4136 1.28897,0.01 1.24854,-0.6267 0.0107,-7.3122 0.04,-14.6249 -0.0179,-21.9369 -0.0212,-0.5373 0.0776,-1.2405 -0.50611,-1.5256 -1.06069,-1.3245 -2.12035,-2.6603 -3.32263,-3.8616 -0.24108,-0.2199 -0.57709,-0.2361 -0.87024,-0.1198 z m 4.04468,3.9461 c 0.57022,0.1491 -0.33381,-0.063 0,0 z"
       style="opacity:1;fill:#ffe680;fill-opacity:1;stroke:none;stroke-width:0.0625;stroke-linecap:butt;stroke-linejoin:bevel;stroke-miterlimit:4;stroke-dasharray:none;stroke-dashoffset:0;stroke-opacity:1;paint-order:fill markers stroke" /><g
       transform="rotate(-90,64.163263,1378.9994)"
       id="g5211"><path
         id="path5213"
         style="fill:none;stroke:#000000;stroke-width:1.91999996;stroke-linecap:round;stroke-linejoin:bevel;stroke-miterlimit:10;stroke-dasharray:none;stroke-opacity:1"
         d="m 472,1259.6801 2.56,-2.0801 2.56,-2.24 2.39999,-2.56 2.24002,-2.88 2.23999,-3.04 2.07999,-3.36" /></g><g
       transform="rotate(-90,458.08326,513.07948)"
       id="g5215"><path
         id="path5217"
         style="fill:none;stroke:#000000;stroke-width:1.91999996;stroke-linecap:round;stroke-linejoin:bevel;stroke-miterlimit:10;stroke-dasharray:none;stroke-opacity:1"
         d="m 0,0 -1.6,1.28 -1.44,1.6 -1.44,1.92 -1.28,2.08 -1.12,2.4 -0.8,2.56 -0.8,2.56 -0.64,2.880001 L -9.44,20.32 -9.76,23.200001 V 26.24 l 0.16,3.040001 0.32,3.039999 0.64,2.720001 0.64,2.879997 0.96,2.560002 1.12,2.400001 1.12,2.079998 1.44,1.920002 1.44,1.759998 1.44,1.279999 1.76,1.120003 1.6,0.799999 1.76,0.32 1.76,0.16 1.76,-0.32 1.6,-0.48 1.76,-0.959999" /></g><g
       transform="rotate(-90,64.163263,1378.9994)"
       id="g5219"><path
         id="path5221"
         style="fill:none;stroke:#000000;stroke-width:1.91999996;stroke-linecap:round;stroke-linejoin:bevel;stroke-miterlimit:10;stroke-dasharray:none;stroke-opacity:1"
         d="m 496.16,1250.24 -2.23999,1.12 -2.24002,1.28 -2.23999,1.6 -2.08001,1.76 -2.07999,2.08 -2.07999,2.08" /></g><g
       transform="rotate(-90,64.163263,1378.9994)"
       id="g5223"><path
         id="path5225"
         style="fill:none;stroke:#000000;stroke-width:1.91999996;stroke-linecap:round;stroke-linejoin:bevel;stroke-miterlimit:10;stroke-dasharray:none;stroke-opacity:1"
         d="m 508,1261.6 -1.44,1.76 -1.28,1.76" /></g><g
       transform="rotate(-90,464.64327,536.43949)"
       id="g5227"><path
         id="path5229"
         style="fill:none;stroke:#000000;stroke-width:1.91999996;stroke-linecap:round;stroke-linejoin:bevel;stroke-miterlimit:10;stroke-dasharray:none;stroke-opacity:1"
         d="M 0,0 -2.24,1.76 -4.32,3.84 -6.24,6.24 -8,8.96 -9.6,12 l -1.6,3.2 -1.28,3.519999 -1.12,3.680001 -0.96,3.84 -0.64,3.84 -0.64,4.160002 -0.16,4 -0.16,4.16 0.16,4.159999 0.32,4.16 0.64,4 0.8,4 0.96,3.680001 1.12,3.68 1.44,3.36 1.44,3.199997 1.76,2.879998 1.76,2.720001 2.08,2.240005 2.08,2.079995 2.24,1.600006 2.24,1.279998 2.24,0.96 2.4,0.639999 2.4,0.159996" /></g><g
       transform="rotate(-90,64.163263,1378.9994)"
       id="g5231"><path
         id="path5233"
         style="fill:none;stroke:#000000;stroke-width:1.91999996;stroke-linecap:round;stroke-linejoin:bevel;stroke-miterlimit:10;stroke-dasharray:none;stroke-opacity:1"
         d="m 442.07999,1242.72 1.76001,-1.2801 1.76001,-1.5999 1.6,-1.76 1.59998,-1.7601" /></g><g
       transform="rotate(-90,64.163263,1378.9994)"
       id="g5235"><path
         id="path5237"
         style="fill:none;stroke:#000000;stroke-width:0.95999998;stroke-linecap:round;stroke-linejoin:round;stroke-miterlimit:10;stroke-dasharray:none;stroke-opacity:1"
         d="M 442.07999,1242.88 H 468" /></g><g
       transform="rotate(-90,64.163263,1378.9994)"
       id="g5239"><path
         id="path5241"
         style="fill:none;stroke:#000000;stroke-width:1.91999996;stroke-linecap:round;stroke-linejoin:bevel;stroke-miterlimit:10;stroke-dasharray:none;stroke-opacity:1"
         d="m 468,1242.72 1.28,-0.96 1.28,-1.12 1.44,-1.28 1.12,-1.28" /></g><g
       transform="rotate(-90,451.68326,523.47948)"
       id="g5243"><path
         id="path5245"
         style="fill:none;stroke:#000000;stroke-width:1.91999996;stroke-linecap:round;stroke-linejoin:bevel;stroke-miterlimit:10;stroke-dasharray:none;stroke-opacity:1"
         d="M 0,0 -2.08,1.76 -4,3.68 l -1.92,2.24 -1.76,2.56 -1.6,2.88 -1.44,3.04 -1.44,3.2 -1.12,3.520001 -0.96,3.519998 -0.8,3.840001 -0.48,3.84 -0.48,3.84 -0.16,4 v 4 l 0.32,4 0.32,3.84 0.64,3.84 0.8,3.68 0.96,3.680001 1.12,3.359997 1.44,3.200004 1.44,3.040001 1.6,2.879997 1.76,2.400002 L -3.84,80.32 -1.92,82.239998 0.16,84 l 2.24,1.279999 2.24,0.959999 2.24,0.639999 2.24,0.32 h 2.24 l 2.4,-0.479996 2.24,-0.800003" /></g><g
       transform="rotate(-90,64.163263,1378.9994)"
       id="g5247"><path
         id="path5249"
         style="fill:none;stroke:#000000;stroke-width:1.91999996;stroke-linecap:round;stroke-linejoin:round;stroke-miterlimit:10;stroke-dasharray:none;stroke-opacity:1"
         d="m 452,1330.24 h 25.92001" /></g><g
       transform="rotate(-90,545.52319,512.03953)"
       id="g5251"><path
         id="path5253"
         style="fill:none;stroke:#000000;stroke-width:1.91999996;stroke-linecap:round;stroke-linejoin:bevel;stroke-miterlimit:10;stroke-dasharray:none;stroke-opacity:1"
         d="M 0,0 0.8,-1.44 1.12,-3.2 V -5.12 L 0.96,-7.04 0.32,-9.12 -0.64,-11.2 -1.92,-13.28 -3.36,-15.36 -5.12,-17.440001 -7.2,-19.52 l -2.24,-1.760001 -2.4,-1.76 -2.4,-1.599998 L -16.959999,-26.08 -19.68,-27.200001 -22.4,-28.32 -25.120001,-28.959999 -27.84,-29.440001 -30.4,-29.76 h -2.399999 l -2.240002,0.16 -2.079998,0.640001 -1.920002,0.639999 -1.599998,0.959999 -1.279999,1.280001 -0.960003,1.280001 -0.799999,1.599998 -0.32,1.76 V -19.52 l 0.16,1.92 0.639999,2.08 0.959999,2.08 1.280003,2.08 1.439999,2.08 1.760002,2.08 2.079998,2.08 2.240001,1.76 2.399998,1.76 2.560001,1.6 2.56,1.44 2.719999,1.12 2.720001,1.12 2.72,0.64 2.72,0.48 2.56,0.32 h 2.4 l 2.24,-0.16 2.08,-0.64 1.92,-0.64 1.6,-0.96 1.28,-1.28 z" /></g><g
       transform="rotate(-90,474.24323,440.75955)"
       id="g5255"><path
         id="path5257"
         style="fill:none;stroke:#000000;stroke-width:1.91999996;stroke-linecap:round;stroke-linejoin:bevel;stroke-miterlimit:10;stroke-dasharray:none;stroke-opacity:1"
         d="M 0,0 0.8,-1.44 1.12,-3.2 V -5.12 L 0.96,-7.04 0.32,-9.12 -0.64,-11.2 -1.92,-13.28 -3.36,-15.36 -5.12,-17.440001 -7.2,-19.52 l -2.24,-1.760001 -2.4,-1.76 -2.4,-1.599998 L -16.959999,-26.08 -19.68,-27.200001 -22.4,-28.32 -25.120001,-28.959999 -27.84,-29.440001 -30.4,-29.76 h -2.399999 l -2.240002,0.16 -2.079998,0.640001 -1.920002,0.639999 -1.599998,0.959999 -1.279999,1.280001 -0.960003,1.280001 -0.799999,1.599998 -0.32,1.76 V -19.52 l 0.16,1.92 0.639999,2.08 0.959999,2.08 1.280003,2.08 1.439999,2.08 1.760002,2.08 2.079998,2.08 2.240001,1.76 2.399998,1.76 2.560001,1.6 2.56,1.44 2.719999,1.12 2.720001,1.12 2.72,0.64 2.72,0.48 2.56,0.32 h 2.4 l 2.24,-0.16 2.08,-0.64 1.92,-0.64 1.6,-0.96 1.28,-1.28 z" /></g><g
       transform="rotate(-90,455.68326,510.35948)"
       id="g5259"><path
         id="path5261"
         style="fill:none;stroke:#000000;stroke-width:0.95999998;stroke-linecap:round;stroke-linejoin:bevel;stroke-miterlimit:10;stroke-dasharray:none;stroke-opacity:1"
         d="m 0,0 -1.76,0.16 -1.6,0.64 -1.76,0.8 -1.44,1.28 -1.6,1.44 -1.28,1.92 -1.28,2.08 -0.96,2.4 -0.96,2.56 -0.64,2.72 -0.48,2.879999 -0.32,2.880001 -0.16,3.039999 0.16,3.040001 0.32,2.879999 0.48,2.879999 0.64,2.720002 0.96,2.560001 0.96,2.399998 1.28,2.080002 1.28,1.919998 1.6,1.440002 L -5.12,48 l 1.76,0.799999 1.6,0.64 1.76,0.159999" /></g><g
       transform="rotate(-90,480.96326,533.07948)"
       id="g5263"><path
         id="path5265"
         style="fill:none;stroke:#000000;stroke-width:1.91999996;stroke-linecap:round;stroke-linejoin:round;stroke-miterlimit:10;stroke-dasharray:none;stroke-opacity:1"
         d="M 0,0 -0.8,0.16 -1.6,0.32 -2.4,0.64 -3.2,0.8 -4,0.96 l -0.8,0.32 -0.96,0.16 -0.8,0.16 -0.8,0.32 -0.8,0.16 -0.8,0.32 -0.8,0.16 -0.8,0.32 -0.8,0.32 -0.8,0.16 -0.8,0.32 -0.8,0.32 -0.8,0.16 -0.8,0.32 -0.8,0.32 -0.799999,0.32 L -17.76,5.44 -18.559999,5.76 -19.360001,6.08 -20.16,6.24 -20.959999,6.56 -21.76,7.04 -22.559999,7.36 -23.360001,7.68 -24.16,8 -24.959999,8.32 -25.76,8.64 -26.559999,8.96 -27.360001,9.44 -28.16,9.76 -28.959999,10.08 -29.6,10.56 -30.4,10.88 -31.200001,11.2 -32,11.68 -32.799999,12 l -0.799999,0.48 -0.640004,0.32 -0.799999,0.48 -0.799999,0.32 -0.799999,0.48 -0.64,0.48 -0.800003,0.32 -0.799999,0.48 -0.799999,0.48 -0.64,0.32 -0.799999,0.479999 -0.799999,0.480002 -0.640003,0.479999 -0.8,0.48 L -44,18.559999 l -0.799999,0.32 -0.799999,0.480002 -0.640004,0.479999 -0.799999,0.48 -0.639999,0.479999 -0.8,0.480002 -0.639999,0.479999 -0.799999,0.48 -0.640003,0.479999 -0.64,0.640002 L -52,23.84 l -0.639999,0.48 -0.64,0.479999 -0.800003,0.480002 -0.639999,0.639999 -0.64,0.48 -0.799999,0.479999 -0.639999,0.480002 -0.64,0.639999 -0.640003,0.48 -0.639999,0.479999 -0.64,0.640001 -0.799999,0.48 -0.639999,0.639999 -0.64,0.480002 -0.640003,0.639999 -0.639999,0.48 -0.64,0.639999 -0.639999,0.48 -0.639999,0.640003 -0.64,0.479999 -0.480003,0.64 -0.64,0.639999 -0.639999,0.48 -0.639999,0.639999 -0.64,0.639999 -0.480003,0.480004 -0.639999,0.639999 -0.64,0.64 L -70.559998,40 l -0.639999,0.639999 -0.639999,0.48 -0.480004,0.639999 -0.639999,0.640004 -0.480003,0.639999 -0.64,0.639999 -0.479996,0.64 -0.639999,0.639999 -0.480003,0.639999 -0.480004,0.640004 -0.639999,0.479999 -0.479996,0.64 -0.480003,0.799999 -0.479996,0.639999 -0.480003,0.64 -0.64,0.640003 -0.479995,0.639999 -0.480004,0.64 L -80.800003,52 l -0.479996,0.639999 -0.480003,0.64 -0.479996,0.639999 -0.32,0.800003 -0.480003,0.64 L -83.519997,56 -84,56.639999 l -0.480003,0.8 -0.32,0.640003 -0.479996,0.639999 -0.480003,0.799999 -0.32,0.64 -0.479996,0.639999" /></g><g
       transform="rotate(-90,505.20329,506.27949)"
       id="g5267"><path
         id="path5269"
         style="fill:none;stroke:#000000;stroke-width:1.91999996;stroke-linecap:round;stroke-linejoin:round;stroke-miterlimit:10;stroke-dasharray:none;stroke-opacity:1"
         d="M 0,0 -0.32,0.16 -0.8,0.32 -1.28,0.48 -1.76,0.64 -2.24,0.8 -2.56,0.96 -3.04,1.12 -3.52,1.28 -4,1.44 -4.48,1.6 -4.96,1.76 -5.28,1.92 -5.76,2.24 -6.24,2.4 -6.72,2.56 -7.2,2.72 -7.52,3.04 -8,3.2 -8.48,3.36 -8.96,3.52 -9.44,3.84 -9.92,4 l -0.32,0.16 -0.48,0.32 -0.48,0.16 -0.48,0.16 -0.48,0.32 -0.32,0.16 -0.48,0.32 -0.48,0.16 -0.48,0.32 -0.48,0.16 -0.32,0.32 -0.48,0.16 -0.48,0.32 -0.48,0.16 -0.32,0.32 -0.479999,0.16 L -17.440001,8 -17.76,8.32 -18.24,8.48 -18.719999,8.8 -19.200001,8.96 -19.52,9.28 -20,9.6 l -0.48,0.16 -0.319999,0.32 -0.480002,0.32 -0.319999,0.32 -0.48,0.16 -0.479999,0.32 -0.32,0.32 -0.480002,0.32 L -23.68,12 l -0.48,0.32 -0.479999,0.32 -0.32,0.32 -0.480002,0.16 -0.319999,0.32 -0.48,0.32 -0.319999,0.32 -0.480002,0.32 -0.32,0.32 -0.319999,0.16 -0.48,0.32 -0.32,0.32 -0.479999,0.32 -0.320002,0.32 -0.319999,0.32 -0.48,0.319999 -0.32,0.320002 -0.319999,0.32 -0.480002,0.319999 -0.319999,0.32 -0.32,0.16 -0.32,0.319999 -0.32,0.32 -0.479999,0.320002 -0.32,0.319999 -0.319999,0.32 -0.32,0.32 -0.320004,0.32 -0.319999,0.319999 -0.32,0.320002 -0.32,0.32 L -35.52,21.76 l -0.32,0.32 -0.32,0.32 -0.32,0.319999 -0.319999,0.320002 -0.32,0.32 -0.32,0.319999 -0.319999,0.32 -0.320004,0.32 -0.32,0.319999 -0.319999,0.32 -0.16,0.320002 -0.32,0.319999 -0.319999,0.32 -0.32,0.32 -0.16,0.319999 -0.32,0.32 -0.319999,0.320002 -0.16,0.319999 -0.32,0.32 -0.16,0.32 -0.319999,0.32 -0.32,0.319999 -0.160004,0.320002 -0.32,0.32 -0.159999,0.159999 -0.16,0.32 -0.32,0.32 -0.16,0.319999 -0.319999,0.32 -0.16,0.320002 -0.16,0.319999 -0.32,0.32 -0.16,0.32 -0.16,0.32 -0.159999,0.159999 -0.16,0.32 -0.32,0.32 -0.16,0.319999 -0.16,0.32 -0.159999,0.160004 -0.16,0.32 -0.16,0.319999" /></g><g
       transform="rotate(-90,480.48326,485.55948)"
       id="g5271"><path
         id="path5273"
         style="fill:none;stroke:#000000;stroke-width:1.91999996;stroke-linecap:round;stroke-linejoin:round;stroke-miterlimit:10;stroke-dasharray:none;stroke-opacity:1"
         d="M 0,0 H 0.48 0.8 1.12 1.44 L 1.76,0.16 H 2.08 2.4 2.72 3.04 3.36 3.68 L 3.84,0.32 H 4.16 4.48 4.8 4.96 L 5.28,0.48 H 5.6 5.76 6.08 L 6.4,0.64 H 6.56 6.72 L 7.04,0.8 H 7.2 7.52 L 7.68,0.96 H 7.84 8 L 8.32,1.12 H 8.48 8.64 L 8.8,1.28 H 8.96 9.12 L 9.28,1.44 H 9.44 9.6 L 9.76,1.6 h 0.16 0.16 v 0.16 h 0.16 0.16 v 0.16 h 0.16 0.16 v 0.16 h 0.16 l 0.16,0.16 h 0.16 l 0.16,0.16 0.16,0.16 v 0.16 0.16 h 0.16 V 3.04 3.2 3.36 3.52 3.68 3.84 L 11.52,4 V 4.16 4.32 4.48 4.64 4.8 4.96 5.12 L 11.36,5.28 V 5.44 5.6 5.92 L 11.2,6.08 V 6.24 6.56 L 11.04,6.72 V 7.04 L 10.88,7.2 V 7.52 L 10.72,7.68 V 8 L 10.56,8.32 V 8.48 L 10.4,8.8 10.24,9.12 V 9.28 L 10.08,9.6 9.92,9.92 9.76,10.24 9.6,10.56 v 0.32 L 9.44,11.2 9.28,11.52 9.12,11.84 8.96,12.16 8.8,12.48 8.64,12.8 8.32,13.12 8.16,13.44 8,13.76" /></g><g
       transform="rotate(-90,455.60326,510.43948)"
       id="g5275"><path
         id="path5277"
         style="fill:none;stroke:#000000;stroke-width:1.91999996;stroke-linecap:round;stroke-linejoin:round;stroke-miterlimit:10;stroke-dasharray:none;stroke-opacity:1"
         d="M 0,0 H 1.12 2.08 3.04 4 L 4.96,0.16 H 5.92 6.88 L 8,0.32 8.96,0.48 h 0.96 l 0.96,0.16 0.96,0.16 0.96,0.16 0.96,0.16 0.96,0.16 0.96,0.16 L 16.639999,1.6 17.6,1.76 18.559999,2.08 19.52,2.24 20.48,2.56 21.440001,2.72 22.4,3.04 23.360001,3.36 24.16,3.52 25.120001,3.84 26.08,4.16 27.040001,4.64 28,4.96 28.799999,5.28 29.76,5.76 30.719999,6.08 31.52,6.56 32.48,6.88 33.439999,7.36 34.240002,7.84 35.200001,8.32 36,8.8 l 0.799999,0.48 0.959999,0.64 0.800003,0.48 0.8,0.64 0.799999,0.48 0.959999,0.64 0.799999,0.64 0.800003,0.64 0.799999,0.64 0.32,0.32 0.32,0.32 0.479999,0.32 0.32,0.32 0.48,0.32 0.319999,0.32 0.320004,0.48 0.479999,0.319999 0.32,0.320002 0.32,0.32 L 47.52,17.92 48,18.24 l 0.32,0.479999 0.319999,0.320002 0.32,0.32 0.32,0.479999 0.319999,0.32 0.32,0.479999 0.320004,0.32 0.319999,0.480002 0.32,0.319999 0.32,0.48 0.319999,0.319999 0.32,0.480002 0.32,0.479999 0.32,0.32 0.319999,0.48 0.32,0.479999 0.32,0.320002 0.159999,0.479999 0.32,0.48 0.320004,0.479999 0.16,0.480002 0.319999,0.32 0.32,0.479999 0.16,0.48 L 55.52,28.799999 55.68,29.280001 56,29.76 l 0.16,0.48 0.32,0.319999 0.159999,0.480002 0.16,0.479999 0.32,0.48 0.16,0.48 0.16,0.479999 0.319999,0.48 0.16,0.479999 0.160004,0.480004 0.16,0.479999 0.16,0.48 0.159999,0.479999 0.16,0.48 0.16,0.639999 0.16,0.48 0.16,0.479999 0.16,0.480004 0.159999,0.479999 0.16,0.48 L 59.84,39.84 60,40.32 v 0.479999 l 0.16,0.48 0.16,0.639999 0.16,0.960003 0.159999,0.959999 0.16,0.959999 0.16,1.119999 0.16,0.960003 0.16,0.959999 v 1.119999 l 0.16,0.959999 V 50.880001 52 52.959999 53.919998 54.880001 56 l -0.16,0.959999 v 0.959999 l -0.16,0.960003 V 59.84 l -0.16,0.959999 -0.16,1.119999 -0.16,0.960003 L 60.48,63.84 l -0.16,0.960003 -0.16,0.959999 -0.32,0.959999 -0.16,0.959999 -0.319999,0.959999 -0.16,0.959999 -0.32,0.96 -0.32,0.800003 -0.159999,0.959999 -0.32,0.959999 -0.320004,0.959999 -0.319999,0.959999 -0.32,0.800003 -0.48,0.959999 L 56.32,77.919998 56,78.879997 55.52,79.68 l -0.319999,0.959999 -0.48,0.800003 -0.319999,0.96 -0.480004,0.799995 -0.479999,0.960007 -0.32,0.799995 -0.48,0.959999 L 52.16,86.720001 51.68,87.68 51.200001,88.480003" /></g><g
       transform="rotate(-90,64.163263,1378.9994)"
       id="g5279"><path
         id="path5281"
         style="fill:none;stroke:#000000;stroke-width:1.91999996;stroke-linecap:round;stroke-linejoin:round;stroke-miterlimit:10;stroke-dasharray:none;stroke-opacity:1"
         d="M 471.51999,1260 H 477.12 m -5.60001,49.76 H 477.12" /></g><g
       transform="rotate(-90,442.24326,488.59948)"
       id="g5283"><path
         id="path5285"
         style="fill:none;stroke:#000000;stroke-width:1.91999996;stroke-linecap:round;stroke-linejoin:bevel;stroke-miterlimit:10;stroke-dasharray:none;stroke-opacity:1"
         d="m 0,0 -1.6,-2.88 -1.92,-2.72 -2.24,-2.72 -2.4,-2.72 -2.56,-2.72 -2.88,-2.4 -3.039999,-2.399999 -3.200001,-2.24 -3.360001,-2.240002 -3.359998,-1.919998 -3.520001,-1.76 -3.679998,-1.440001 -3.520001,-1.44 -3.68,-1.119999 L -44.48,-31.52 l -3.52,-0.8 -3.52,-0.319999 -3.200001,-0.16 h -3.199997 l -3.040001,0.319999 -2.880001,0.64 -2.560002,0.799999 -2.400001,0.960001 -2.079994,1.280001 -1.920006,1.599998 -1.599999,1.600001 -1.279998,1.92 -1.120003,2.08 -0.639999,2.08 -0.32,2.399999" /></g><g
       transform="rotate(-90,64.163263,1378.9994)"
       id="g5287"><path
         id="path5289"
         style="fill:none;stroke:#000000;stroke-width:1.91999996;stroke-linecap:round;stroke-linejoin:bevel;stroke-miterlimit:10;stroke-dasharray:none;stroke-opacity:1"
         d="m 472.32001,1259.36 0.32,0.3201 0.47999,0.1599" /></g><g
       transform="rotate(-90,64.163263,1378.9994)"
       id="g5291"><path
         id="path5293"
         style="fill:none;stroke:#000000;stroke-width:1.91999996;stroke-linecap:round;stroke-linejoin:round;stroke-miterlimit:10;stroke-dasharray:none;stroke-opacity:1"
         d="M 279.20001,1108.3199 380.64001,1284 m 25.12,43.36 56.79999,98.72" /></g><g
       transform="rotate(-90,64.163263,1378.9994)"
       id="g5295"><path
         id="path5297"
         style="fill:none;stroke:#000000;stroke-width:1.91999996;stroke-linecap:round;stroke-linejoin:round;stroke-miterlimit:10;stroke-dasharray:none;stroke-opacity:1"
         d="M 279.20001,1108.3199 294.72,1081.6 h 208.48001" /></g><g
       transform="rotate(-90,64.163263,1378.9994)"
       id="g5299"><path
         id="path5301"
         style="fill:none;stroke:#000000;stroke-width:1.91999996;stroke-linecap:round;stroke-linejoin:round;stroke-miterlimit:10;stroke-dasharray:none;stroke-opacity:1"
         d="M 279.20001,1108.3199 H 487.67999 L 503.20001,1081.6 686.56,1399.36" /></g><g
       transform="rotate(-90,64.163263,1378.9994)"
       id="g5303"><path
         id="path5305"
         style="fill:none;stroke:#000000;stroke-width:1.91999996;stroke-linecap:round;stroke-linejoin:round;stroke-miterlimit:10;stroke-dasharray:none;stroke-opacity:1"
         d="M 487.67999,1108.3199 671.03998,1426.08 686.56,1399.36" /></g><g
       transform="rotate(-90,64.163263,1378.9994)"
       id="g5307"><path
         id="path5309"
         style="fill:none;stroke:#000000;stroke-width:1.91999996;stroke-linecap:round;stroke-linejoin:round;stroke-miterlimit:10;stroke-dasharray:none;stroke-opacity:1"
         d="M 462.56,1426.08 H 671.03998" /></g><path
       id="path10108"
       d="m 109.26366,774.0912 c -105.016554,60.29653 -209.82558,120.95563 -314.73434,181.4406 -0.90463,10.8557 -0.1577,22.1554 -0.43391,33.1801 -0.03,57.6342 -0.37766,115.2722 -0.037,172.9042 2.57518,1.3277 5.79583,-2.8756 8.58472,-3.675 54.93562,-31.6341 109.874436,-63.263 164.697866,-95.0907 0.77551,-2.6714 -2.5801,-5.1704 -3.44946,-7.6689 -7.19901,-12.5513 -12.45184,-26.1683 -16.70446,-39.9241 -4.21817,-4.0107 -10.31347,-5.4069 -15.63645,-7.3928 -7.75709,-3.4933 -11.16189,-12.0969 -10.93254,-19.9565 -0.99299,-17.1141 7.76485,-33.3922 18.63751,-46.1166 4.20054,-5.602 10.82886,-8.5278 15.3782,-13.68637 9.20343,-14.87332 26.57196,-24.78409 44.23008,-23.63836 12.93715,-0.31309 25.8184,4.11251 36.47262,11.39795 6.17364,6.45585 3.61389,16.53578 0.54966,23.88138 -3.75258,8.7733 -10.7155,16.5376 -19.97576,19.817 -1.02248,8.5958 -0.13852,17.7453 -0.43366,26.5524 -0.13872,5.0407 1.09997,10.5523 -2.71242,14.5454 -3.18667,4.6017 -7.87054,7.8122 -12.41442,10.8179 -0.66218,3.9937 2.73787,7.6797 4.0562,11.3206 2.39731,4.4849 4.66144,9.0935 7.69117,13.1947 3.34158,0.1576 6.1839,-3.4118 9.34154,-4.4815 29.57535,-16.8101 59.01132,-33.8649 88.508504,-50.8123 0.90787,-10.8543 0.15817,-22.1556 0.43531,-33.1801 0.0202,-57.61474 0.40162,-115.23404 -2.7e-4,-172.84619 -0.004,-0.55787 -0.70304,-0.82732 -1.11866,-0.58281 z"
       style="opacity:1;fill:#808080;fill-opacity:1;stroke:none;stroke-width:0.70710671;stroke-linecap:butt;stroke-linejoin:bevel;stroke-miterlimit:4;stroke-dasharray:none;stroke-dashoffset:0;stroke-opacity:1;paint-order:fill markers stroke" /><path
       id="path10110"
       d="m -232.34074,942.1975 c -0.0548,68.5593 -0.008,137.1249 -0.0235,205.6866 7.46351,5.2904 15.92381,9.734 24.00434,14.2886 2.35361,-0.7926 0.56475,-4.7253 1.18727,-6.7257 0.47253,-66.4072 0.0395,-132.8167 0.007,-199.2247 -7.44184,-5.4077 -16.14772,-9.5551 -24.06234,-14.4888 l -0.67258,-0.044 z"
       style="opacity:1;fill:#808080;fill-opacity:1;stroke:none;stroke-width:0.70710671;stroke-linecap:butt;stroke-linejoin:bevel;stroke-miterlimit:4;stroke-dasharray:none;stroke-dashoffset:0;stroke-opacity:1;paint-order:fill markers stroke" /><path
       id="path10112"
       d="m 84.216606,757.80703 c -93.09075,53.01864 -185.725856,106.84983 -278.446576,160.51913 -11.88801,6.96101 -23.87359,13.76594 -35.65799,20.89654 -0.6747,2.4429 3.51378,3.1882 4.84203,4.6874 6.17093,3.6018 12.17997,7.9066 18.93858,10.2544 85.93691,-48.94957 171.529536,-98.58866 257.265006,-147.92308 19.27435,-11.1437 38.58561,-22.22433 57.803544,-33.465 -0.58694,-3.3899 -6.97816,-4.50653 -9.774394,-7.00497 -4.96765,-2.55124 -9.70602,-6.30963 -14.9702,-7.96442 z"
       style="opacity:1;fill:#808080;fill-opacity:1;stroke:none;stroke-width:0.70710671;stroke-linecap:butt;stroke-linejoin:bevel;stroke-miterlimit:4;stroke-dasharray:none;stroke-dashoffset:0;stroke-opacity:1;paint-order:fill markers stroke" /><text
       id="text11133"
       y="1139.8925"
       x="220.93512"
       style="font-style:normal;font-variant:normal;font-weight:normal;font-stretch:normal;font-size:40px;line-height:1.25;font-family:Consolas;-inkscape-font-specification:Consolas;text-align:center;letter-spacing:0px;word-spacing:0px;text-anchor:middle;fill:#000000;fill-opacity:1;stroke:none"
       xml:space="preserve"><tspan
         id="tspan11131"
         y="1139.8925"
         x="220.93512"><tspan
           id="tspan11129"
           style="font-size:29.33333397px"
           y="1139.8925"
           x="220.93512">1.8mm Elastic Cord</tspan></tspan></text>
<path
       id="path10180"
       d="m 33.877026,1094.9364 40,34"
       style="fill:none;stroke:#000000;stroke-width:1px;stroke-linecap:butt;stroke-linejoin:miter;stroke-opacity:1;marker-start:url(#Arrow2Lstart)" /><text
       id="text11139"
       y="1062.8925"
       x="195.48201"
       style="font-style:normal;font-variant:normal;font-weight:normal;font-stretch:normal;font-size:40px;line-height:1.25;font-family:Consolas;-inkscape-font-specification:Consolas;text-align:center;letter-spacing:0px;word-spacing:0px;text-anchor:middle;fill:#000000;fill-opacity:1;stroke:none"
       xml:space="preserve"><tspan
         id="tspan11137"
         y="1062.8925"
         x="195.48201"><tspan
           id="tspan11135"
           style="font-size:29.33333397px"
           y="1062.8925"
           x="195.48201">Basket Wall</tspan></tspan></text>
<path
       style="fill:none;stroke:#000000;stroke-width:1px;stroke-linecap:butt;stroke-linejoin:miter;stroke-opacity:1;marker-start:url(#marker10782)"
       d="m 64.877026,1017.9364 40.000004,34"
       id="path10766" /></g></svg>